<?xml version="1.0" encoding="utf-8"?>
<!-- Generator: Adobe Illustrator 27.2.0, SVG Export Plug-In . SVG Version: 6.00 Build 0)  -->
<svg version="1.1" id="Capa_1" xmlns="http://www.w3.org/2000/svg" xmlns:xlink="http://www.w3.org/1999/xlink" x="0px" y="0px"
	 viewBox="0 0 1920 768" style="enable-background:new 0 0 1920 768;" xml:space="preserve">
<style type="text/css">
	.st0{fill:#FFFFFF;}
</style>
<g>
	<path class="st0" d="M379.7,531.2H192.4l1.6-3.4c1.2-2.6,1.9-5.4,1.9-8.3V266c0-3.5-0.9-6.9-2.7-9.9l-1.4-2.4h188l-1.5,2.7
		c-1.6,2.9-2.4,6.1-2.4,9.3v253.4c0,3.2,0.8,6.3,2.2,9.1L379.7,531.2L379.7,531.2L379.7,531.2z"/>
	<path class="st0" d="M887.8,502.1c-4.8-7.3-89.6-135.8-89.6-135.8s81.1-95.4,88.4-102.1s14.2-10.8,14.2-10.8s-173.5,0-180,0.2
		c-1.7,10.6-11.7,24.3-16.2,30.4c-4.5,6.1-72.6,93.5-72.6,93.5V265.6c0-3.3,0.8-6.5,2.2-9.3l1.3-2.7H461.9l1.3,2.5
		c1.6,3,2.5,6.4,2.5,9.9v253.5c0,2.9-0.6,5.7-1.7,8.3l-1.5,3.4h173.1l-1.5-3c-1.4-2.8-2.1-5.9-2.1-9.1V411c0,0,38.9,58.1,52.2,77
		c13.4,19,19.7,38.6,20.7,43.3H912C908.6,526.7,892.7,509.4,887.8,502.1L887.8,502.1L887.8,502.1z"/>
	<g>
		<path class="st0" d="M960.1,46.8c535.2,0,921.5,156.8,921.5,345.6S1495.6,738,960.1,738S38.4,581.2,38.4,392.4
			S424.9,46.8,960.1,46.8 M960.1,16.8c-131.9,0-257.9,9.4-374.5,27.8C473.3,62.4,373.1,88,287.8,120.8c-85.9,33-153.5,72-201,115.9
			c-25,23.1-44.2,47.6-57.3,72.8c-13.9,26.9-21,54.8-21,82.9s7.1,56,21,82.9c13.1,25.2,32.4,49.7,57.3,72.8
			c47.5,44,115.1,83,201,115.9c85.3,32.8,185.5,58.4,297.8,76.2C702.1,758.7,828.2,768,960.1,768s258-9.4,374.6-27.8
			c112.3-17.8,212.4-43.4,297.7-76.2c85.8-33,153.4-72,200.9-115.9c24.9-23.1,44.2-47.6,57.3-72.8c13.9-26.9,21-54.7,21-82.9
			s-7.1-56-21-82.9c-13.1-25.2-32.4-49.7-57.3-72.8c-47.5-44-115.1-83-200.9-115.9C1547,88,1446.8,62.4,1334.6,44.6
			C1218,26.2,1092,16.8,960.1,16.8L960.1,16.8L960.1,16.8z"/>
		<path class="st0" d="M1267.2,328.2l8.5,1.3v-75.9l-160.6,0.2l0.1-0.2H941.4l1,1.8c1.9,3.4,2.8,7.2,2.8,11.1v252.5
			c0,3.2-0.7,6.3-1.9,9.2l-1.2,2.9h173.1l-0.1-0.2l160.6,0.2v-75.9l-8.5,1.3c-5.3,0.8-10.7,1.3-16,1.3h-139.6v-37h134v-57.6h-134
			v-36.3h139.6C1256.6,326.9,1261.9,327.4,1267.2,328.2L1267.2,328.2L1267.2,328.2z"/>
		<path class="st0" d="M1751.6,531.2l-7.9-12.6c-1.2-1.9-2.2-3.9-3-6l-97.3-249.2c-0.7-1.8-1-3.6-1-5.5v-4.2h-239.8v2.5
			c0,3-0.5,6-1.6,8.8l-91,248.6c-0.5,1.4-1.2,2.8-2,4.1l-8.4,13.5h140.9l0-4.2c0-2.1,0.3-4.1,1.1-6l12.1-33.1h104l12.2,31.5
			c1.2,3,1.7,6.1,1.7,9.3v2.5H1751.6L1751.6,531.2z M1475.2,429.2l29-78.9l30.7,78.9H1475.2z"/>
	</g>
</g>
<path class="st0" d="M1727.3,279.4c4.6-2.3,7.8-7.1,7.8-12.6c0-7.8-6.3-14.1-14.1-14.1h-16.2v44.5h6.4v-16.4h9.5l9,16.4h7.3
	L1727.3,279.4z M1721,275.9h-9.7v-16.2h9.7c4.5,0,8.1,3.6,8.1,8.1S1725.4,275.9,1721,275.9L1721,275.9L1721,275.9z"/>
<path class="st0" d="M1718.8,238.5c-20.3,0-36.8,16.5-36.8,36.8s16.5,36.8,36.8,36.8s36.8-16.5,36.8-36.8S1739.1,238.5,1718.8,238.5
	L1718.8,238.5L1718.8,238.5z M1718.8,305.1c-16.4,0-29.8-13.3-29.8-29.8s13.3-29.8,29.8-29.8s29.8,13.3,29.8,29.8
	S1735.3,305.1,1718.8,305.1z"/>
</svg>
