<?xml version="1.0" encoding="UTF-8"?>
<svg id="Capa_1" data-name="Capa 1" xmlns="http://www.w3.org/2000/svg" viewBox="0 0 1920 768">
  <defs>
    <style>
      .cls-1 {
        fill: #0058ab;
      }

      .cls-2 {
        fill: #fbd914;
        fill-rule: evenodd;
      }
    </style>
  </defs>
  <path class="cls-2" d="m38.4,384c0,188.79,386.23,345.6,921.73,345.6s921.47-156.81,921.47-345.6S1495.37,38.4,960.13,38.4,38.4,195.21,38.4,384Z"/>
  <path class="cls-1" d="m379.71,522.78h-187.28l1.58-3.37c1.22-2.59,1.85-5.42,1.85-8.28v-253.53c0-3.49-.94-6.92-2.72-9.93l-1.45-2.45h188.02l-1.46,2.68c-1.56,2.86-2.38,6.07-2.38,9.33v253.43c0,3.16.77,6.28,2.24,9.07l1.6,3.04Z"/>
  <path class="cls-1" d="m887.82,493.7c-4.83-7.3-89.61-135.78-89.61-135.78,0,0,81.13-95.35,88.43-102.13,7.3-6.78,14.22-10.78,14.22-10.78,0,0-173.52,0-179.96.21-1.74,10.61-11.65,24.35-16.17,30.43-4.52,6.09-72.6,93.48-72.6,93.48v-111.9c0-3.26.76-6.47,2.2-9.33l1.35-2.68h-173.74l1.34,2.45c1.65,3,2.51,6.43,2.51,9.93v253.53c0,2.86-.58,5.69-1.71,8.28l-1.46,3.37h173.06l-1.48-3.04c-1.36-2.8-2.07-5.91-2.07-9.07v-108.06s38.86,58.09,52.25,77.04c13.39,18.96,19.65,38.61,20.7,43.26h206.87c-3.33-4.57-19.3-21.91-24.13-29.22Z"/>
  <path class="cls-1" d="m1267.23,319.79l8.46,1.34v-75.91l-160.61.18.09-.18h-173.74l1.01,1.84c1.87,3.41,2.85,7.24,2.85,11.13v252.48c0,3.18-.65,6.32-1.92,9.23l-1.25,2.89h173.06l-.09-.18,160.61.18v-75.91l-8.46,1.34c-5.31.84-10.67,1.27-16.04,1.27h-139.57s0-37.04,0-37.04h133.99v-57.65h-133.99v-36.26h139.57c5.37,0,10.74.42,16.04,1.27Z"/>
  <path class="cls-1" d="m1751.56,522.78l-7.86-12.61c-1.19-1.91-2.2-3.93-3.02-6.02l-97.28-249.22c-.69-1.76-1.04-3.64-1.04-5.54v-4.18h-239.8v2.5c0,3-.53,5.98-1.56,8.81l-90.96,248.63c-.52,1.43-1.19,2.8-2,4.09l-8.44,13.54h140.91l-.02-4.18c-.01-2.07.35-4.12,1.06-6.05l12.13-33.07h103.97l12.24,31.5c1.15,2.97,1.74,6.13,1.72,9.32v2.48s179.95,0,179.95,0Zm-276.35-102l28.96-78.92,30.67,78.92h-59.63Z"/>
  <path class="cls-1" d="m1727.28,271.03c4.62-2.31,7.8-7.08,7.8-12.59,0-7.78-6.31-14.09-14.09-14.09h-16.17v44.52h6.43v-16.35h9.5l8.98,16.35h7.35l-9.8-17.84Zm-6.29-3.51h-9.74v-16.17h9.74c4.46,0,8.09,3.63,8.09,8.09s-3.63,8.09-8.09,8.09Z"/>
  <path class="cls-1" d="m1718.85,230.13c-20.28,0-36.77,16.5-36.77,36.77s16.5,36.77,36.77,36.77,36.77-16.5,36.77-36.77-16.5-36.77-36.77-36.77Zm0,66.54c-16.44,0-29.77-13.33-29.77-29.77s13.33-29.77,29.77-29.77,29.77,13.33,29.77,29.77-13.33,29.77-29.77,29.77Z"/>
</svg>