<?xml version="1.0" encoding="UTF-8"?><svg id="Capa_1" xmlns="http://www.w3.org/2000/svg" viewBox="0 0 76 76"><defs><style>.cls-1{fill:#212121;}</style></defs><path class="cls-1" d="M74.97,70.03l-18.87-18.87c4.31-5.39,6.89-12.22,6.89-19.66C63,14.1,48.9,0,31.5,0S0,14.1,0,31.5s14.1,31.5,31.5,31.5c7.44,0,14.27-2.58,19.66-6.89l18.87,18.87c.68,.68,1.58,1.03,2.47,1.03s1.79-.34,2.47-1.03c1.37-1.37,1.37-3.58,0-4.95Zm-43.47-14.03c-13.51,0-24.5-10.99-24.5-24.5S17.99,7,31.5,7s24.5,10.99,24.5,24.5-10.99,24.5-24.5,24.5Z"/></svg>