<?xml version="1.0" encoding="utf-8"?>
<!-- Generator: Adobe Illustrator 27.2.0, SVG Export Plug-In . SVG Version: 6.00 Build 0)  -->
<svg version="1.1" id="Layer_1" xmlns="http://www.w3.org/2000/svg" xmlns:xlink="http://www.w3.org/1999/xlink" x="0px" y="0px"
	 viewBox="0 0 11.3 15.3" style="enable-background:new 0 0 11.3 15.3;" xml:space="preserve">
<style type="text/css">
	.st0{fill:none;stroke:#FDFDFD;stroke-linecap:round;stroke-linejoin:round;}
</style>
<path class="st0" d="M6.9,2.1v2.6c0,0.4,0,0.5,0.1,0.7C7,5.6,7.1,5.7,7.3,5.7c0.1,0.1,0.3,0.1,0.7,0.1h2.6 M3.7,10.3l1.9,1.9
	 M5.6,12.2l1.9-1.9 M5.6,12.2V8.4 M6.9,2H3.6C2.5,2,2,2,1.6,2.2C1.2,2.4,0.9,2.7,0.7,3C0.5,3.4,0.5,4,0.5,5v6.7c0,1.1,0,1.6,0.2,2
	c0.2,0.4,0.5,0.7,0.8,0.8c0.4,0.2,0.9,0.2,2,0.2h4.1c1.1,0,1.6,0,2-0.2c0.4-0.2,0.7-0.5,0.8-0.8c0.2-0.4,0.2-0.9,0.2-2V5.8L6.9,2z"
	/>
</svg>
