<?xml version="1.0" encoding="UTF-8"?>
<svg id="Layer_1" data-name="Layer 1" xmlns="http://www.w3.org/2000/svg" viewBox="0 0 16 17.12">
  <defs>
    <style>
      .cls-1 {
        fill: #212121;
      }
    </style>
  </defs>
  <path class="cls-1" d="m8,17.12c-.48,0-.95-.14-1.35-.4-.4-.26-.72-.63-.91-1.07l-.46-1.03h0c-.1-.22-.26-.41-.47-.53-.21-.12-.45-.18-.7-.15l-1.12.12c-.48.05-.96-.04-1.39-.26-.43-.22-.78-.55-1.02-.97-.24-.42-.35-.89-.33-1.37s.19-.94.47-1.33l.66-.91c.14-.2.22-.43.22-.68s-.08-.48-.22-.68l-.66-.91c-.28-.39-.45-.85-.47-1.33-.03-.48.09-.95.33-1.37.24-.42.59-.75,1.02-.97.43-.22.91-.31,1.39-.26l1.12.12c.24.02.48-.03.7-.15.21-.12.37-.3.47-.53l.46-1.03c.2-.44.51-.81.92-1.07.8-.52,1.9-.52,2.7,0,.4.26.72.63.91,1.07l.46,1.02c.1.22.27.41.47.53.21.12.45.17.69.15l1.12-.12c.48-.05.96.04,1.39.26.43.22.78.55,1.02.97.24.42.36.89.33,1.37-.03.48-.19.94-.47,1.33l-.66.91c-.14.2-.22.43-.22.68,0,.25.07.48.22.68l.66.91c.28.39.45.85.47,1.33.03.48-.09.95-.33,1.37-.24.42-.59.75-1.02.97-.43.22-.91.3-1.39.26l-1.12-.12c-.25-.03-.48.03-.7.15-.21.12-.37.3-.47.52l-.46,1.03c-.2.44-.51.81-.91,1.07-.4.26-.87.4-1.35.4Zm-1.35-3.11l.46,1.03c.08.17.2.32.36.42.32.21.75.21,1.07,0,.16-.1.28-.25.36-.42l.46-1.03c.23-.51.61-.93,1.09-1.21.49-.28,1.04-.4,1.6-.34l1.12.12c.19.02.38-.01.55-.1.17-.09.31-.22.4-.38.1-.17.14-.35.13-.54s-.07-.37-.19-.53l-.66-.91c-.33-.46-.51-1-.5-1.57,0-.56.17-1.1.51-1.55l.66-.91c.11-.15.18-.34.19-.52,0-.19-.04-.38-.13-.54-.1-.16-.24-.3-.4-.38-.17-.09-.36-.12-.55-.1l-1.12.12c-.56.06-1.11-.06-1.6-.34-.48-.28-.87-.71-1.09-1.22l-.46-1.02c-.08-.18-.2-.32-.36-.43-.32-.21-.75-.21-1.07,0-.16.1-.29.25-.36.42l-.46,1.03c-.23.51-.6.93-1.09,1.22-.49.28-1.04.4-1.6.34l-1.12-.12c-.19-.02-.38.02-.55.1-.17.09-.31.22-.4.38-.1.17-.14.35-.13.54,0,.19.07.37.19.52l.66.91c.33.46.51,1,.51,1.56s-.17,1.1-.51,1.56l-.66.91c-.11.15-.18.33-.19.52-.01.19.04.38.13.54.1.16.23.3.4.38.17.09.36.12.55.1l1.12-.12c.56-.06,1.12.06,1.6.34.49.28.87.7,1.1,1.22h0Z"/>
  <path class="cls-1" d="m8,11.65c-1.71,0-3.09-1.39-3.09-3.09s1.39-3.09,3.09-3.09,3.09,1.39,3.09,3.09-1.39,3.09-3.09,3.09Zm0-4.69c-.88,0-1.59.72-1.59,1.59s.72,1.59,1.59,1.59,1.59-.72,1.59-1.59-.72-1.59-1.59-1.59Z"/>
</svg>