<?xml version="1.0" encoding="UTF-8"?><svg id="Capa_1" xmlns="http://www.w3.org/2000/svg" viewBox="0 0 286 174"><defs><style>.cls-1{fill:#212529;}.cls-2{fill:#4593cc;}</style></defs><g><polygon class="cls-1" points="111.68 64.42 44.36 25.55 8.68 46.14 76 85.01 76 85.02 111.68 64.42"/><path class="cls-1" d="M6.76,127.21l66.71,38.52V89.4L6.76,50.88V127.21Zm2.87-62.2c.7-1.21,2.25-1.63,3.46-.93l19.42,11.21c1.21,.7,1.63,2.25,.93,3.46-.47,.82-1.32,1.27-2.2,1.27-.43,0-.86-.11-1.26-.34l-19.42-11.21c-1.21-.7-1.63-2.25-.93-3.46Zm0,13.52c.7-1.21,2.25-1.63,3.46-.93l19.42,11.21c1.21,.7,1.63,2.25,.93,3.46-.47,.82-1.32,1.27-2.2,1.27-.43,0-.86-.11-1.26-.34l-19.42-11.21c-1.21-.7-1.63-2.25-.93-3.46Z"/><polygon class="cls-1" points="78.54 165.72 145.25 127.21 145.25 50.88 78.54 89.4 78.54 165.72"/><polygon class="cls-1" points="143.32 46.15 76 7.28 49.42 22.62 116.74 61.49 143.32 46.15"/></g><polygon class="cls-2" points="210.74 162.24 199.66 151.15 264.03 86.82 200.56 23.32 211.65 12.24 286.19 86.83 210.74 162.24"/></svg>