<?xml version="1.0" encoding="UTF-8"?><svg id="Capa_1" xmlns="http://www.w3.org/2000/svg" viewBox="0 0 286 174"><defs><style>.cls-1{fill:#242424;}.cls-2{fill:#4593cc;}</style></defs><polygon class="cls-2" points="210.74 162.24 199.66 151.15 264.03 86.82 200.56 23.32 211.65 12.24 286.19 86.83 210.74 162.24"/><g><path class="cls-1" d="M18.46,144c0-.1-.02-.17-.02-.25,.02-2.96-.04-5.92,.08-8.88,.28-7.02,2.09-13.64,5.45-19.81,5.55-10.21,13.77-17.39,24.62-21.58,.32-.13,.58-.11,.9,.04,5.66,2.68,11.62,3.83,17.86,3.48,4.75-.26,9.29-1.41,13.59-3.46,.34-.16,.62-.18,.97-.04,9.84,3.75,17.52,10.14,23.11,19.03,3.73,5.93,5.95,12.42,6.68,19.39,.22,2.09,.25,4.19,.31,6.29,.05,1.78,.01,3.57,.01,5.35,0,.14,0,.28,0,.45H18.46Z"/><path class="cls-1" d="M34.98,60.47c-.24-16.3,12.61-30.04,29.18-30.61,16.78-.58,30.48,12.45,31.27,28.73,.82,16.94-12.32,31.11-29.07,31.72-17.28,.63-31.21-13.12-31.38-29.84Z"/></g></svg>