<?xml version="1.0" encoding="utf-8"?>
<!-- Generator: Adobe Illustrator 26.5.1, SVG Export Plug-In . SVG Version: 6.00 Build 0)  -->
<svg version="1.1" id="Capa_1" xmlns="http://www.w3.org/2000/svg" xmlns:xlink="http://www.w3.org/1999/xlink" x="0px" y="0px"
	 viewBox="0 0 100 100" style="enable-background:new 0 0 100 100;" xml:space="preserve">
<style type="text/css">
	.st0{fill:#FFFFFF;}
	.st1{fill:#4593CC;}
</style>
<path class="st0" d="M58,17.9c0,4.4-3.6,8-8,8s-8-3.6-8-8s3.6-8,8-8S58,13.5,58,17.9z M33.9,42c0-3,2.4-5.4,5.4-5.4H50
	c3,0,5.4,2.4,5.4,5.4v37.5h5.4c3,0,5.4,2.4,5.4,5.4c0,3-2.4,5.4-5.4,5.4H39.3c-3,0-5.4-2.4-5.4-5.4c0-3,2.4-5.4,5.4-5.4h5.4V47.3
	h-5.4C36.3,47.3,33.9,44.9,33.9,42z"/>
<g>
	<path class="st1" d="M50.5,1C23.9,0.5,1.7,22.2,1,49.2C0.3,76.1,22.2,98.4,49.7,99C76,99.5,98.2,77.7,98.9,50.5
		C99.6,24.1,77.5,1.5,50.5,1z"/>
	<path class="st0" d="M57.6,79c-0.9,1.2-1.6,2.7-2.8,3.6c-1.3,1-2.9,1.6-4.5,2.1c-9,2.7-12.9-0.8-11-10c1.6-8.2,3.3-16.4,5.1-24.5
		c0.7-3.1,0.8-5.4-3.2-5.8c-0.6-0.1-1.6-1-1.6-1.5c0-0.6,0.9-1.7,1.5-1.8c5.3-0.8,10.6-1.4,16.5-2.1c-1.6,7.6-3,14.4-4.5,21.3
		c-0.9,4.1-1.8,8.3-2.7,12.4C49.1,79.5,50.1,80.4,57.6,79z"/>
	<path class="st0" d="M58.1,22.9c0,4-3.6,7.6-7.7,7.7c-4.1,0-7.8-3.6-7.8-7.6c0-4.1,3.4-7.7,7.5-7.9C54.3,15,58,18.6,58.1,22.9z"/>
</g>
</svg>
