<?xml version="1.0" encoding="utf-8"?>
<!-- Generator: Adobe Illustrator 27.2.0, SVG Export Plug-In . SVG Version: 6.00 Build 0)  -->
<svg version="1.1" id="Layer_1" xmlns="http://www.w3.org/2000/svg" xmlns:xlink="http://www.w3.org/1999/xlink" x="0px" y="0px"
	 viewBox="0 0 20 22" style="enable-background:new 0 0 20 22;" xml:space="preserve">
<style type="text/css">
	.st0{fill:none;stroke:#FAFAFA;stroke-width:2;stroke-linecap:round;stroke-linejoin:round;}
</style>
<path class="st0" d="M13,18c0,1.7-1.3,3-3,3c-1.7,0-3-1.3-3-3 M11.8,5.2c0.4-0.4,0.7-1.1,0.7-1.7C12.5,2.1,11.4,1,10,1
	C8.6,1,7.5,2.1,7.5,3.5c0,0.7,0.3,1.3,0.7,1.7 M16,10.2c0-1.4-0.6-2.7-1.8-3.7C13.1,5.5,11.6,5,10,5C8.4,5,6.9,5.5,5.8,6.5
	C4.6,7.5,4,8.8,4,10.2c0,2.3-0.6,4-1.3,5.1c-0.8,1.4-1.2,2-1.2,2.2c0,0.2,0.1,0.2,0.2,0.4C1.9,18,2.5,18,3.9,18h12.3
	c1.3,0,2,0,2.1-0.1c0.2-0.1,0.2-0.2,0.2-0.4c0-0.2-0.4-0.8-1.2-2.2C16.6,14.2,16,12.5,16,10.2z"/>
</svg>
