<?xml version="1.0" encoding="utf-8"?>
<!-- Generator: Adobe Illustrator 26.5.1, SVG Export Plug-In . SVG Version: 6.00 Build 0)  -->
<svg version="1.1" xmlns="http://www.w3.org/2000/svg" xmlns:xlink="http://www.w3.org/1999/xlink" x="0px" y="0px"
	 viewBox="0 0 75 75.6" style="enable-background:new 0 0 75 75.6;" xml:space="preserve">
<style type="text/css">
	.st0{fill:none;stroke:#212121;stroke-width:5;stroke-linecap:round;stroke-linejoin:round;stroke-miterlimit:10;}
</style>
<g id="Capa_1">
	<g>
		<line class="st0" x1="48.3" y1="58.2" x2="71.3" y2="58.2"/>
		<line class="st0" x1="59.8" y1="46.7" x2="59.8" y2="69.6"/>
		<path class="st0" d="M66.4,41V22.1L35.6,5.8c-1.4-0.7-3.1-0.7-4.5,0.1L3.7,21.2v33.3l29.9,15.8l7.8-2.7"/>
		<polyline class="st0" points="5.1,22.6 33.9,37.8 66.4,22.1 		"/>
		<line class="st0" x1="20.1" y1="13.6" x2="49.7" y2="29.9"/>
		<line class="st0" x1="33.6" y1="70.3" x2="33.6" y2="37.8"/>
	</g>
</g>
<g id="Capa_2">
	<g>
		<line class="st0" x1="54" y1="67.8" x2="69.9" y2="51.1"/>
		<line class="st0" x1="53.7" y1="51.5" x2="70.3" y2="67.4"/>
		<path class="st0" d="M67.3,41V22.1L36.5,5.8c-1.4-0.7-3.1-0.7-4.5,0.1L4.7,21.2v33.3l29.9,15.8l7.8-2.7"/>
		<polyline class="st0" points="6.1,22.6 34.8,37.8 67.3,22.1 		"/>
		<line class="st0" x1="21.1" y1="13.6" x2="51.1" y2="29.9"/>
		<line class="st0" x1="34.6" y1="70.3" x2="34.6" y2="37.8"/>
	</g>
</g>
<g id="Capa_3">
	<g>
		<path class="st0" d="M66.4,41V22.1L35.6,5.8c-1.4-0.7-3.1-0.7-4.5,0.1L3.8,21.2v33.3l29.9,15.8l7.8-2.7"/>
		<polyline class="st0" points="5.2,22.6 33.9,37.8 66.4,22.1 		"/>
		<line class="st0" x1="20.2" y1="13.6" x2="50" y2="29.8"/>
		<line class="st0" x1="33.7" y1="70.3" x2="33.7" y2="37.8"/>
		<polyline class="st0" points="50,57.7 56.9,64.7 71.2,50.7 		"/>
	</g>
</g>
</svg>
