<?xml version="1.0" encoding="utf-8"?>
<!-- Generator: Adobe Illustrator 27.2.0, SVG Export Plug-In . SVG Version: 6.00 Build 0)  -->
<svg version="1.1" id="Layer_1" xmlns="http://www.w3.org/2000/svg" xmlns:xlink="http://www.w3.org/1999/xlink" x="0px" y="0px"
	 viewBox="0 0 16 16" style="enable-background:new 0 0 16 16;" xml:space="preserve">
<style type="text/css">
	.st0{fill:none;stroke:#FDFDFD;stroke-width:1.5;stroke-linecap:round;stroke-linejoin:round;}
</style>
<path class="st0" d="M15,5.9H1 M1,5.1v5.9c0,1.2,0,1.8,0.2,2.2c0.2,0.4,0.5,0.7,0.9,0.9c0.4,0.2,1,0.2,2.2,0.2h7.3
	c1.2,0,1.8,0,2.2-0.2c0.4-0.2,0.7-0.5,0.9-0.9c0.2-0.4,0.2-1,0.2-2.2V5.1c0-1.2,0-1.8-0.2-2.2c-0.2-0.4-0.5-0.7-0.9-0.9
	c-0.4-0.2-1-0.2-2.2-0.2H4.4c-1.2,0-1.8,0-2.2,0.2C1.8,2.1,1.4,2.5,1.2,2.8C1,3.3,1,3.9,1,5.1z"/>
</svg>
