<?xml version="1.0" encoding="utf-8"?>
<!-- Generator: Adobe Illustrator 27.2.0, SVG Export Plug-In . SVG Version: 6.00 Build 0)  -->
<svg currentColor="green" version="1.1" id="Layer_1" xmlns="http://www.w3.org/2000/svg" xmlns:xlink="http://www.w3.org/1999/xlink" x="0px" y="0px"
	 viewBox="0 0 14 14" style="enable-background:new 0 0 14 14;" xml:space="preserve">
<style type="text/css">
	.st0{fill:none;stroke:#212121;stroke-width:1.5;stroke-linecap:round;stroke-linejoin:round;}
</style>
<path class="st0" d="M5.2,5.2c0.1-0.4,0.4-0.8,0.8-1C6.4,4,6.8,3.9,7.3,4C7.7,4,8.1,4.3,8.4,4.6c0.3,0.3,0.4,0.8,0.4,1.2
	C8.8,7,7,7.6,7,7.6 M7,10.1L7,10.1 M13.1,7c0,3.4-2.7,6.1-6.1,6.1c-3.4,0-6.1-2.7-6.1-6.1c0-3.4,2.7-6.1,6.1-6.1
	C10.4,0.9,13.1,3.6,13.1,7z"/>
</svg>
