<?xml version="1.0" encoding="UTF-8"?>
<svg id="Layer_1" data-name="Layer 1" xmlns="http://www.w3.org/2000/svg" viewBox="0 0 55.26 80.32">
  <defs>
    <style>
      .cls-1 {
        fill: #212529;
      }

      .cls-2 {
        fill: none;
        stroke: #212529;
        stroke-linejoin: round;
        stroke-width: 3px;
      }
    </style>
  </defs>
  <path class="cls-2" d="m51.88,3.46H19.37s-.03,0-.05,0c-.01,0-.03,0-.04,0-.38,0-.72.22-.88.53L2.71,18.16s-.01.01-.02.02c-.01.01-.03.03-.04.04,0,.01-.02.02-.03.03-.01.02-.03.03-.04.05,0,.01-.02.02-.02.03-.01.02-.02.04-.04.05,0,0-.01.02-.02.03-.01.02-.02.04-.03.06,0,0,0,.02-.01.02-.01.02-.02.05-.03.08,0,0,0,.01,0,.02,0,.03-.02.06-.02.09,0,0,0,0,0,.01,0,.03-.01.06-.01.09,0,0,0,0,0,.01,0,.03,0,.07,0,.1v56.96c0,.55.45,1,1,1h48.5c.55,0,1-.45,1-1V4.46c0-.55-.45-1-1-1Z"/>
  <path class="cls-1" d="m51.88,3.46H19.37s-.03,0-.05,0c-.01,0-.03,0-.04,0-.38,0-.72.22-.88.53L2.71,18.16s-.01.01-.02.02c-.01.01-.03.03-.04.04,0,.01-.02.02-.03.03-.01.02-.03.03-.04.05,0,.01-.02.02-.02.03-.01.02-.02.04-.04.05,0,0-.01.02-.02.03-.01.02-.02.04-.03.06,0,0,0,.02-.01.02-.01.02-.02.05-.03.08,0,0,0,.01,0,.02,0,.03-.02.06-.02.09,0,0,0,0,0,.01,0,.03-.01.06-.01.09,0,0,0,0,0,.01,0,.03,0,.07,0,.1v56.96c0,.55.45,1,1,1h48.5c.55,0,1-.45,1-1V4.46c0-.55-.45-1-1-1Zm-33.6,3.33v11.11H5.98l12.3-11.11Zm32.6,68.07H4.38V19.9h14.9c.55,0,1-.45,1-1V5.46h30.6v69.4Z"/>
  <rect class="cls-1" x="11.33" y="26.14" width="31.65" height="4.66"/>
  <rect class="cls-1" x="11.33" y="38.14" width="31.65" height="4.66"/>
  <rect class="cls-1" x="11.33" y="50.14" width="31.65" height="4.66"/>
  <rect class="cls-1" x="11.33" y="62.14" width="31.65" height="4.66"/>
</svg>