<?xml version="1.0" encoding="utf-8"?>
<!-- Generator: Adobe Illustrator 27.2.0, SVG Export Plug-In . SVG Version: 6.00 Build 0)  -->
<svg version="1.1" id="Layer_1" xmlns="http://www.w3.org/2000/svg" xmlns:xlink="http://www.w3.org/1999/xlink" x="0px" y="0px"
	 viewBox="0 0 16 16" style="enable-background:new 0 0 16 16;" xml:space="preserve">
<style type="text/css">
	.st0{fill:none;stroke:#212121;stroke-width:1.5;stroke-linecap:round;stroke-linejoin:round;}
</style>
<path class="st0" d="M1,2.7c0-0.4,0-0.6,0.1-0.8c0.1-0.1,0.2-0.2,0.3-0.3c0.1-0.1,0.3-0.1,0.7-0.1h11.8c0.4,0,0.6,0,0.7,0.1
	c0.1,0.1,0.2,0.2,0.3,0.3C15,2.1,15,2.3,15,2.7v0.5c0,0.2,0,0.3,0,0.4c0,0.1-0.1,0.2-0.1,0.2c-0.1,0.1-0.1,0.1-0.3,0.3l-4.5,4.1
	C10,8.2,9.9,8.3,9.9,8.4c0,0.1-0.1,0.1-0.1,0.2c0,0.1,0,0.2,0,0.4v3.8c0,0.1,0,0.2,0,0.3c0,0.1-0.1,0.1-0.1,0.1c0,0-0.1,0.1-0.2,0.1
	l-2.4,1c-0.3,0.1-0.4,0.2-0.5,0.1c-0.1,0-0.2-0.1-0.2-0.2c-0.1-0.1-0.1-0.2-0.1-0.5V9c0-0.2,0-0.3,0-0.4c0-0.1-0.1-0.2-0.1-0.2
	C6.1,8.3,6,8.2,5.9,8.1L1.4,4C1.2,3.9,1.2,3.9,1.1,3.8C1.1,3.7,1,3.6,1,3.5c0-0.1,0-0.2,0-0.4V2.7z"/>
</svg>
