<?xml version="1.0" encoding="utf-8"?>
<!-- Generator: Adobe Illustrator 27.2.0, SVG Export Plug-In . SVG Version: 6.00 Build 0)  -->
<svg version="1.1" id="Layer_1" xmlns="http://www.w3.org/2000/svg" xmlns:xlink="http://www.w3.org/1999/xlink" x="0px" y="0px"
	 viewBox="0 0 15.1 14" style="enable-background:new 0 0 15.1 14;" xml:space="preserve">
<style type="text/css">
	.st0{fill:none;stroke:#F1FAEE;stroke-width:1.5;stroke-linecap:round;stroke-linejoin:round;}
</style>
<path class="st0" d="M8.2,10.5H13 M8.2,10.5l-1.3,2.8 M8.2,10.5l1.9-4.1c0.2-0.3,0.2-0.5,0.3-0.6c0.1,0,0.2,0,0.3,0S10.9,6,11,6.3
	l1.9,4.1 M13,10.5l1.3,2.8 M0.9,2.2h4 M4.9,2.2h2.3 M4.9,2.2V0.8 M7.2,2.2h1.7 M7.2,2.2C6.9,4.2,6.1,6.1,5,7.6 M6.2,8.4
	C5.8,8.2,5.4,7.9,5,7.6 M5,7.6C4.1,6.9,3.3,5.9,2.9,4.9 M5,7.6c-1.1,1.5-2.5,2.7-4.1,3.5"/>
</svg>
