<svg width="16" height="16" viewBox="0 0 16 16" fill="none" xmlns="http://www.w3.org/2000/svg">
<path d="M4.85 2.75C4.85 1.7835 5.6335 1 6.6 1C7.5665 1 8.35 1.7835 8.35 2.75V3.8H9.05C10.0285 3.8 10.5177 3.8 10.9036 3.95985C11.4182 4.17299 11.827 4.58181 12.0401 5.09636C12.2 5.48228 12.2 5.97152 12.2 6.95H13.25C14.2165 6.95 15 7.7335 15 8.7C15 9.6665 14.2165 10.45 13.25 10.45H12.2V11.64C12.2 12.8161 12.2 13.4042 11.9711 13.8534C11.7698 14.2485 11.4485 14.5698 11.0534 14.7711C10.6042 15 10.0161 15 8.84 15H8.35V13.775C8.35 12.9052 7.64485 12.2 6.775 12.2C5.90515 12.2 5.2 12.9052 5.2 13.775V15H4.36C3.18389 15 2.59583 15 2.14662 14.7711C1.75148 14.5698 1.43022 14.2485 1.22889 13.8534C1 13.4042 1 12.8161 1 11.64V10.45H2.05C3.0165 10.45 3.8 9.6665 3.8 8.7C3.8 7.7335 3.0165 6.95 2.05 6.95H1C1 5.97152 1 5.48228 1.15985 5.09636C1.37299 4.58181 1.78181 4.17299 2.29636 3.95985C2.68228 3.8 3.17152 3.8 4.15 3.8H4.85V2.75Z" stroke="#212121" stroke-width="1.5" stroke-linecap="round" stroke-linejoin="round"/>
</svg>
