<svg width="16" height="16" viewBox="0 0 16 16" fill="none" xmlns="http://www.w3.org/2000/svg">
<path d="M15 5.90002H1M1 5.06002L1 10.94C1 12.1161 1 12.7042 1.22889 13.1534C1.43022 13.5485 1.75148 13.8698 2.14662 14.0711C2.59583 14.3 3.18389 14.3 4.36 14.3H11.64C12.8161 14.3 13.4042 14.3 13.8534 14.0711C14.2485 13.8698 14.5698 13.5485 14.7711 13.1534C15 12.7042 15 12.1161 15 10.94V5.06002C15 3.88391 15 3.29585 14.7711 2.84664C14.5698 2.4515 14.2485 2.13024 13.8534 1.9289C13.4042 1.70002 12.8161 1.70002 11.64 1.70002L4.36 1.70002C3.18389 1.70002 2.59583 1.70002 2.14662 1.9289C1.75148 2.13024 1.43022 2.4515 1.22889 2.84664C1 3.29585 1 3.88391 1 5.06002Z" stroke="#212121" stroke-width="1.5" stroke-linecap="round" stroke-linejoin="round"/>
</svg>
