<?xml version="1.0" encoding="UTF-8"?><svg id="Capa_1" xmlns="http://www.w3.org/2000/svg" viewBox="0 0 75 75.6"><defs><style>.cls-1{fill:#fdfdfd;}</style></defs><path class="cls-1" d="M63.16,75.6H11.66c-1.93,0-3.5-1.57-3.5-3.5V37.33c0-1.93,1.57-3.5,3.5-3.5s3.5,1.57,3.5,3.5v31.27H59.66v-31.27c0-1.93,1.57-3.5,3.5-3.5s3.5,1.57,3.5,3.5v34.77c0,1.93-1.57,3.5-3.5,3.5Z"/><path class="cls-1" d="M3.5,35.26c-1.01,0-2.01-.44-2.71-1.28-1.23-1.49-1.01-3.7,.48-4.93L35.66,.8c1.3-1.07,3.18-1.06,4.47,.02l33.62,28.26c1.48,1.24,1.67,3.45,.43,4.93-1.24,1.48-3.45,1.67-4.93,.43L37.86,8.05,5.72,34.46c-.65,.54-1.44,.8-2.22,.8Z"/></svg>