<svg width="16" height="18" viewBox="0 0 16 18" fill="none" xmlns="http://www.w3.org/2000/svg">
<path d="M15 7.44439H1M11.1111 1.22217V4.33328M4.88889 1.22217V4.33328M4.73333 16.7777H11.2667C12.5735 16.7777 13.2269 16.7777 13.726 16.5234C14.165 16.2997 14.522 15.9427 14.7457 15.5037C15 15.0046 15 14.3512 15 13.0444V6.51106C15 5.20427 15 4.55087 14.7457 4.05175C14.522 3.6127 14.165 3.25575 13.726 3.03204C13.2269 2.77772 12.5735 2.77772 11.2667 2.77772H4.73333C3.42654 2.77772 2.77315 2.77772 2.27402 3.03204C1.83498 3.25575 1.47802 3.6127 1.25432 4.05175C1 4.55087 1 5.20427 1 6.51106V13.0444C1 14.3512 1 15.0046 1.25432 15.5037C1.47802 15.9427 1.83498 16.2997 2.27402 16.5234C2.77315 16.7777 3.42654 16.7777 4.73333 16.7777Z" stroke="#212121" stroke-width="1.5" stroke-linecap="round" stroke-linejoin="round"/>
</svg>
