<?xml version="1.0" encoding="utf-8"?>
<!-- Generator: Adobe Illustrator 27.2.0, SVG Export Plug-In . SVG Version: 6.00 Build 0)  -->
<svg version="1.1" id="Layer_1" xmlns="http://www.w3.org/2000/svg" xmlns:xlink="http://www.w3.org/1999/xlink" x="0px" y="0px"
	 viewBox="0 0 16 16" style="enable-background:new 0 0 16 16;" xml:space="preserve">
<style type="text/css">
	.st0{fill:none;stroke:#FDFDFD;stroke-width:1.5;stroke-linecap:round;stroke-linejoin:round;}
</style>
<path class="st0" d="M4.8,2.8c0-1,0.8-1.8,1.8-1.8s1.8,0.8,1.8,1.8v1h0.7c1,0,1.5,0,1.9,0.2c0.5,0.2,0.9,0.6,1.1,1.1
	c0.2,0.4,0.2,0.9,0.2,1.9h1.1c1,0,1.8,0.8,1.8,1.8s-0.8,1.8-1.8,1.8h-1.1v1.2c0,1.2,0,1.8-0.2,2.2c-0.2,0.4-0.5,0.7-0.9,0.9
	C10.6,15,10,15,8.8,15H8.4v-1.2c0-0.9-0.7-1.6-1.6-1.6s-1.6,0.7-1.6,1.6V15H4.4c-1.2,0-1.8,0-2.2-0.2c-0.4-0.2-0.7-0.5-0.9-0.9
	C1,13.4,1,12.8,1,11.6v-1.2h1c1,0,1.8-0.8,1.8-1.8S3,6.9,2,6.9H1c0-1,0-1.5,0.2-1.9C1.4,4.6,1.8,4.2,2.3,4c0.4-0.2,0.9-0.2,1.9-0.2
	h0.7V2.8z"/>
</svg>
