<?xml version="1.0" encoding="utf-8"?>
<!-- Generator: Adobe Illustrator 27.2.0, SVG Export Plug-In . SVG Version: 6.00 Build 0)  -->
<svg version="1.1" id="Layer_1" xmlns="http://www.w3.org/2000/svg" xmlns:xlink="http://www.w3.org/1999/xlink" x="0px" y="0px"
	 viewBox="0 0 16 16" style="enable-background:new 0 0 16 16;" xml:space="preserve">
<style type="text/css">
	.st0{clip-path:url(#SVGID_00000050647051499938766960000007562001007135236016_);}
	.st1{fill:#EEEEEE;}
	.st2{fill:#496E2D;}
	.st3{fill:#D80027;}
	.st4{fill:#FFDA44;}
	.st5{fill:#338AF3;}
	.st6{fill:#751A46;}
	.st7{fill:#6DA544;}
	.st8{fill:#FF9811;}
</style>
<g>
	<defs>
		<circle id="SVGID_1_" cx="8" cy="8" r="8"/>
	</defs>
	<clipPath id="SVGID_00000067219639115697153820000015374673234221599383_">
		<use xlink:href="#SVGID_1_"  style="overflow:visible;"/>
	</clipPath>
	<g style="clip-path:url(#SVGID_00000067219639115697153820000015374673234221599383_);">
		<path class="st1" d="M4.5,0h7l1,8l-1,8h-7l-1-8L4.5,0z"/>
		<path class="st2" d="M0,0h4.5v16H0V0z"/>
		<path class="st3" d="M11.5,0H16v16h-4.5V0z"/>
		<path class="st4" d="M8,8.7V9h0.4l0.3-0.7L8,8.7z"/>
		<path class="st2" d="M5,7.6c0,0.8,0.3,1.6,0.9,2.1c0.6,0.6,1.3,0.9,2.1,0.9s1.6-0.3,2.1-0.9C10.7,9.1,11,8.4,11,7.6h-0.3
			c0,0.7-0.3,1.4-0.8,1.9C9.4,9.9,8.7,10.2,8,10.2S6.6,9.9,6.1,9.4S5.3,8.3,5.3,7.6H5z M6.2,8.1L6.2,8.1C6,8.2,6,8.3,6.1,8.4
			c0.5,0.4,1.1,0.7,1.7,0.8v0.5h0.4V9.2c0.6-0.1,1.2-0.3,1.7-0.8c0.1-0.1,0.1-0.2,0-0.2c-0.1-0.1-0.2-0.1-0.2,0
			C9.2,8.6,8.6,8.8,8,8.8S6.8,8.6,6.3,8.1H6.2z"/>
		<path class="st5" d="M8,9.9c-0.4,0-0.9-0.2-1.2-0.4L7,9.2c0.6,0.4,1.5,0.4,2.1,0l0.2,0.3C8.9,9.7,8.5,9.9,8,9.9z"/>
		<path class="st6" d="M8,5.4c0.7,0.3,0.4,1,0.3,1.1V6.4C8.1,6,7.7,5.8,7.3,5.8v0.3c0.2,0,0.3,0.2,0.3,0.3C7.4,6.7,7.4,7,7.5,7.3
			l0.1,0.2L7.2,8.3l0.9-0.2l0.6,0.6V8.3L9,8.6l0.7-0.3l-1-0.7L8.5,7l0.9,0.5c0.1,0.3,0.4,0.7,0.7,0.8c0.3-2.6-1.3-2.8-1.9-2.8L8,5.4
			L8,5.4z"/>
		<path class="st7" d="M6.9,8.5c-0.5,0-1-0.4-1.2-1.2L6,7.2c0.1,0.7,0.6,1,0.8,1c0.1,0,0.2,0,0.2-0.1S7,8,6.8,7.9
			c-0.1,0-0.2-0.1-0.3-0.2C6.3,7.3,6.8,7,7,6.8c0,0,0.1-0.1,0-0.1c0,0-0.1-0.1-0.2-0.1c-0.2,0-0.4-0.1-0.4-0.3
			C6.3,6.1,6.5,5.9,6.7,5.8l0.2,0.3c-0.1,0-0.1,0.1-0.1,0.1s0,0.1,0.1,0.1c0.2,0,0.4,0.1,0.5,0.3c0,0.1,0.1,0.3-0.2,0.5
			C7,7.2,6.8,7.4,6.9,7.5h0.2C7.3,7.6,7.5,7.7,7.5,8C7.4,8.3,7.2,8.5,6.9,8.5z"/>
		<path class="st4" d="M7.3,5.8L6.9,6.2v0.3l0.6-0.3c0.1,0,0.1-0.2,0-0.2L7.3,5.8z"/>
		<path class="st4" d="M5.4,8.8c0.1,0,0.2-0.1,0.2-0.2c0-0.1-0.1-0.2-0.2-0.2S5.1,8.5,5.1,8.6S5.2,8.8,5.4,8.8z"/>
		<path class="st4" d="M5.9,9.7c0.1,0,0.2-0.1,0.2-0.2c0-0.1-0.1-0.3-0.2-0.3S5.7,9.3,5.7,9.5C5.7,9.6,5.8,9.7,5.9,9.7z"/>
		<path class="st4" d="M6.8,10.3c0.1,0,0.2-0.1,0.2-0.2C7,10,6.9,9.8,6.8,9.8S6.5,10,6.5,10.1C6.5,10.2,6.6,10.3,6.8,10.3z"/>
		<path class="st4" d="M9.3,10.3c0.1,0,0.3-0.1,0.3-0.2c0-0.1-0.1-0.3-0.3-0.3S9,10,9,10.1C9,10.2,9.1,10.3,9.3,10.3z"/>
		<path class="st4" d="M10.1,9.7c0.1,0,0.3-0.1,0.3-0.2c0-0.1-0.1-0.3-0.3-0.3c-0.1,0-0.2,0.1-0.2,0.3C9.9,9.6,10,9.7,10.1,9.7z"/>
		<path class="st4" d="M10.7,8.8c0.1,0,0.2-0.1,0.2-0.2c0-0.1-0.1-0.2-0.2-0.2s-0.3,0.1-0.3,0.2S10.5,8.8,10.7,8.8z"/>
		<path class="st8" d="M8.2,9.3H7.8c-0.2,0-0.3,0.2-0.3,0.3c0,0.2,0.2,0.3,0.3,0.3h0.4c0.2,0,0.3-0.2,0.3-0.3S8.4,9.3,8.2,9.3z"/>
	</g>
</g>
</svg>
