<?xml version="1.0" encoding="UTF-8"?><svg id="Capa_1" xmlns="http://www.w3.org/2000/svg" viewBox="0 0 286 174"><defs><style>.cls-1{fill:#242424;}.cls-2{fill:#4593cc;}.cls-3{fill:none;stroke:#fff;stroke-miterlimit:10;stroke-width:6px;}</style></defs><polygon class="cls-2" points="210.74 162.24 199.66 151.15 264.03 86.82 200.56 23.32 211.65 12.24 286.19 86.83 210.74 162.24"/><g><g><path class="cls-1" d="M94.57,128.22c0-.07-.02-.13-.02-.18,.02-2.2-.03-4.4,.06-6.59,.21-5.21,1.55-10.13,4.04-14.7,4.12-7.58,10.22-12.91,18.27-16.02,.24-.09,.43-.08,.67,.03,4.2,1.99,8.62,2.84,13.26,2.58,3.53-.2,6.89-1.05,10.08-2.57,.25-.12,.46-.13,.72-.03,7.31,2.78,13,7.53,17.15,14.13,2.77,4.4,4.42,9.22,4.96,14.39,.16,1.55,.19,3.11,.23,4.67,.04,1.32,0,2.65,0,3.97,0,.11,0,.21,0,.33H94.57Z"/><path class="cls-1" d="M106.83,66.23c-.18-12.09,9.36-22.29,21.66-22.72,12.45-.43,22.62,9.24,23.21,21.32,.61,12.57-9.15,23.08-21.58,23.54-12.82,.47-23.16-9.73-23.29-22.14Z"/></g><g><path class="cls-1" d="M6.02,126.63c0-.07-.02-.13-.02-.18,.02-2.2-.03-4.4,.06-6.59,.21-5.21,1.55-10.13,4.04-14.7,4.12-7.58,10.22-12.91,18.27-16.02,.24-.09,.43-.08,.67,.03,4.2,1.99,8.62,2.84,13.26,2.58,3.53-.2,6.89-1.05,10.08-2.57,.25-.12,.46-.13,.72-.03,7.31,2.78,13,7.53,17.15,14.13,2.77,4.4,4.42,9.22,4.96,14.39,.16,1.55,.19,3.11,.23,4.67,.04,1.32,0,2.65,0,3.97,0,.11,0,.21,0,.33H6.02Z"/><path class="cls-1" d="M18.28,64.64c-.18-12.09,9.36-22.29,21.66-22.72,12.45-.43,22.62,9.24,23.21,21.32,.61,12.57-9.15,23.08-21.58,23.54-12.82,.47-23.16-9.73-23.29-22.14Z"/></g></g><g><path class="cls-3" d="M45.73,138.1c0-.08-.02-.14-.02-.21,.02-2.49-.03-4.97,.07-7.46,.24-5.89,1.76-11.46,4.57-16.64,4.66-8.57,11.56-14.61,20.67-18.12,.27-.11,.49-.09,.75,.03,4.75,2.25,9.76,3.21,15,2.92,3.99-.22,7.8-1.19,11.41-2.91,.28-.14,.52-.15,.82-.03,8.27,3.15,14.71,8.52,19.4,15.98,3.13,4.98,5,10.43,5.61,16.28,.18,1.75,.21,3.52,.26,5.28,.04,1.5,0,3,0,4.49,0,.12,0,.24,0,.37H45.73Z"/><path class="cls-3" d="M59.6,67.97c-.2-13.68,10.59-25.22,24.5-25.7,14.09-.49,25.6,10.46,26.26,24.12,.69,14.23-10.35,26.12-24.41,26.63-14.51,.53-26.2-11.01-26.35-25.05Z"/></g><g><path class="cls-1" d="M45.73,138.1c0-.08-.02-.14-.02-.21,.02-2.49-.03-4.97,.07-7.46,.24-5.89,1.76-11.46,4.57-16.64,4.66-8.57,11.56-14.61,20.67-18.12,.27-.11,.49-.09,.75,.03,4.75,2.25,9.76,3.21,15,2.92,3.99-.22,7.8-1.19,11.41-2.91,.28-.14,.52-.15,.82-.03,8.27,3.15,14.71,8.52,19.4,15.98,3.13,4.98,5,10.43,5.61,16.28,.18,1.75,.21,3.52,.26,5.28,.04,1.5,0,3,0,4.49,0,.12,0,.24,0,.37H45.73Z"/><path class="cls-1" d="M59.6,67.97c-.2-13.68,10.59-25.22,24.5-25.7,14.09-.49,25.6,10.46,26.26,24.12,.69,14.23-10.35,26.12-24.41,26.63-14.51,.53-26.2-11.01-26.35-25.05Z"/></g></svg>