<?xml version="1.0" encoding="utf-8"?>
<!-- Generator: Adobe Illustrator 27.2.0, SVG Export Plug-In . SVG Version: 6.00 Build 0)  -->
<svg version="1.1" id="Layer_1" xmlns="http://www.w3.org/2000/svg" xmlns:xlink="http://www.w3.org/1999/xlink" x="0px" y="0px"
	 viewBox="0 0 16 17.1" style="enable-background:new 0 0 16 17.1;" xml:space="preserve">
<style type="text/css">
	.st0{fill:#FDFDFD;}
</style>
<path class="st0" d="M8,17.1c-0.5,0-0.9-0.1-1.3-0.4s-0.7-0.6-0.9-1.1l-0.5-1l0,0c-0.1-0.2-0.3-0.4-0.5-0.5s-0.4-0.2-0.7-0.1L3,14.1
	c-0.5,0.1-1,0-1.4-0.3s-0.8-0.6-1-1s-0.3-0.9-0.3-1.4s0.2-0.9,0.5-1.3l0.7-0.9C1.5,9,1.6,8.8,1.6,8.5S1.5,8.1,1.4,7.9L0.7,7
	C0.4,6.6,0.3,6.1,0.3,5.6c0-0.5,0.1-0.9,0.3-1.4s0.6-0.8,1-1S2.5,3,3,3l1.1,0.1c0.2,0,0.5,0,0.7-0.2C5,2.9,5.2,2.7,5.3,2.5l0.5-1
	C5.9,1,6.2,0.6,6.7,0.4c0.8-0.5,1.9-0.5,2.7,0c0.4,0.3,0.7,0.6,0.9,1.1l0.5,1C10.8,2.7,11,2.9,11.2,3c0.2,0.1,0.4,0.2,0.7,0.2L13,3
	c0.5,0,1,0,1.4,0.3s0.8,0.5,1,1s0.4,0.9,0.3,1.4s-0.2,0.9-0.5,1.3l-0.7,0.9c-0.1,0.2-0.2,0.4-0.2,0.7s0.1,0.5,0.2,0.7l0.7,0.9
	c0.3,0.4,0.4,0.9,0.5,1.3c0,0.5-0.1,0.9-0.3,1.4s-0.6,0.8-1,1s-0.9,0.3-1.4,0.3l-1.1-0.1c-0.2,0-0.5,0-0.7,0.1
	c-0.2,0.1-0.4,0.3-0.5,0.5l-0.5,1c-0.2,0.4-0.5,0.8-0.9,1.1S8.5,17.1,8,17.1L8,17.1z M6.7,14l0.5,1c0.1,0.2,0.2,0.3,0.4,0.4
	c0.3,0.2,0.8,0.2,1.1,0c0.2-0.1,0.3-0.2,0.4-0.4l0.5-1c0.2-0.5,0.6-0.9,1.1-1.2c0.5-0.3,1-0.4,1.6-0.3l1.1,0.1c0.2,0,0.4,0,0.6-0.1
	s0.3-0.2,0.4-0.4c0.1-0.2,0.1-0.4,0.1-0.5s-0.1-0.4-0.2-0.5l-0.7-0.9c-0.3-0.5-0.5-1-0.5-1.6c0-0.6,0.2-1.1,0.5-1.6l0.7-0.9
	c0.1-0.2,0.2-0.3,0.2-0.5c0-0.2,0-0.4-0.1-0.5c-0.1-0.2-0.2-0.3-0.4-0.4c-0.2-0.1-0.4-0.1-0.6-0.1l-1.1,0.1
	c-0.6,0.1-1.1-0.1-1.6-0.3C10,4.1,9.6,3.6,9.4,3.1l-0.5-1C8.8,1.9,8.7,1.8,8.6,1.7c-0.3-0.2-0.8-0.2-1.1,0C7.3,1.8,7.2,1.9,7.1,2.1
	l-0.5,1C6.4,3.6,6.1,4,5.6,4.3C5.1,4.6,4.5,4.7,4,4.7L2.8,4.6c-0.2,0-0.4,0-0.5,0.1C2.1,4.7,2,4.9,1.9,5C1.8,5.2,1.8,5.4,1.8,5.6
	c0,0.2,0.1,0.4,0.2,0.5L2.6,7C3,7.5,3.1,8,3.1,8.6S3,9.7,2.6,10.1L2,11c-0.1,0.1-0.2,0.3-0.2,0.5c0,0.2,0,0.4,0.1,0.5
	c0.1,0.2,0.2,0.3,0.4,0.4c0.2,0.1,0.4,0.1,0.5,0.1L4,12.5c0.6-0.1,1.1,0.1,1.6,0.3C6.1,13.1,6.4,13.5,6.7,14L6.7,14L6.7,14z"/>
<path class="st0" d="M8,11.6c-1.7,0-3.1-1.4-3.1-3.1S6.3,5.5,8,5.5s3.1,1.4,3.1,3.1S9.7,11.6,8,11.6z M8,7C7.1,7,6.4,7.7,6.4,8.5
	s0.7,1.6,1.6,1.6s1.6-0.7,1.6-1.6S8.9,7,8,7z"/>
</svg>
