<?xml version="1.0" encoding="utf-8"?>
<!-- Generator: Adobe Illustrator 27.2.0, SVG Export Plug-In . SVG Version: 6.00 Build 0)  -->
<svg version="1.1" id="Layer_1" xmlns="http://www.w3.org/2000/svg" xmlns:xlink="http://www.w3.org/1999/xlink" x="0px" y="0px"
	 viewBox="0 0 16 16" style="enable-background:new 0 0 16 16;" xml:space="preserve">
<style type="text/css">
	.st0{clip-path:url(#SVGID_00000062151587983493160940000000177219379243642523_);}
	.st1{fill:#FFFFFF;filter:url(#Adobe_OpacityMaskFilter);}
	.st2{mask:url(#mask0_74_135_00000164499961777360892780000014737379537759091865_);}
	.st3{fill:#EEEEEE;}
	.st4{fill:#D80027;}
	.st5{fill:#0052B4;}
</style>
<g>
	<defs>
		<rect id="SVGID_1_" x="0.4" y="0.4" width="15.2" height="15.2"/>
	</defs>
	<clipPath id="SVGID_00000059293173471802207770000011323711808215067781_">
		<use xlink:href="#SVGID_1_"  style="overflow:visible;"/>
	</clipPath>
	<g style="clip-path:url(#SVGID_00000059293173471802207770000011323711808215067781_);">
		<defs>
			<filter id="Adobe_OpacityMaskFilter" filterUnits="userSpaceOnUse" x="0.4" y="0.4" width="15.2" height="15.2">
				<feColorMatrix  type="matrix" values="1 0 0 0 0  0 1 0 0 0  0 0 1 0 0  0 0 0 1 0"/>
			</filter>
		</defs>
		
			<mask maskUnits="userSpaceOnUse" x="0.4" y="0.4" width="15.2" height="15.2" id="mask0_74_135_00000164499961777360892780000014737379537759091865_">
			<path class="st1" d="M8,15.6c4.2,0,7.6-3.4,7.6-7.6c0-4.2-3.4-7.6-7.6-7.6C3.8,0.4,0.4,3.8,0.4,8C0.4,12.2,3.8,15.6,8,15.6z"/>
		</mask>
		<g class="st2">
			<path class="st3" d="M8,0.4h7.6v1.9l-1,1l1,1v1.9l-1,1l1,1v1.9l-1,1l1,1v1.9l-7.6,1l-7.6-1v-1.9l1-1l-1-1V8L8,0.4z"/>
			<path class="st4" d="M7,2.3h8.6v1.9H7V2.3z M7,6.1h8.6V8H8L7,6.1z M0.4,9.9h15.2v1.9H0.4V9.9z M0.4,13.7h15.2v1.9H0.4V13.7z"/>
			<path class="st5" d="M0.4,0.4H8V8H0.4V0.4z"/>
			<path class="st3" d="M5.9,7.6l1.7-1.2H5.6l1.7,1.2l-0.7-2L5.9,7.6z M3.5,7.6l1.7-1.2H3.2l1.7,1.2l-0.7-2L3.5,7.6z M1.1,7.6
				l1.7-1.2H0.7l1.7,1.2l-0.7-2L1.1,7.6z M5.9,5.2L7.6,4H5.6l1.7,1.2l-0.7-2L5.9,5.2z M3.5,5.2L5.2,4H3.2l1.7,1.2l-0.7-2L3.5,5.2z
				 M1.1,5.2L2.8,4H0.7l1.7,1.2l-0.7-2L1.1,5.2z M5.9,2.8l1.7-1.2H5.6l1.7,1.2l-0.7-2L5.9,2.8z M3.5,2.8l1.7-1.2H3.2l1.7,1.2l-0.7-2
				L3.5,2.8z M1.1,2.8l1.7-1.2H0.7l1.7,1.2l-0.7-2L1.1,2.8z"/>
		</g>
	</g>
</g>
</svg>
