<?xml version="1.0" encoding="utf-8"?>
<!-- Generator: Adobe Illustrator 27.2.0, SVG Export Plug-In . SVG Version: 6.00 Build 0)  -->
<svg version="1.1" id="Layer_1" xmlns="http://www.w3.org/2000/svg" xmlns:xlink="http://www.w3.org/1999/xlink" x="0px" y="0px"
	 viewBox="0 0 16 18" style="enable-background:new 0 0 16 18;" xml:space="preserve">
<style type="text/css">
	.st0{fill:none;stroke:#A6A6A2;stroke-width:1.5;stroke-linecap:round;stroke-linejoin:round;}
</style>
<path class="st0" d="M6,14.8l0.5,1c0.1,0.3,0.4,0.6,0.6,0.7c0.3,0.2,0.6,0.3,0.9,0.3c0.3,0,0.7-0.1,0.9-0.3c0.3-0.2,0.5-0.4,0.6-0.7
	l0.5-1c0.2-0.4,0.4-0.7,0.8-0.9c0.3-0.2,0.7-0.3,1.1-0.2l1.1,0.1c0.3,0,0.7,0,1-0.2c0.3-0.2,0.5-0.4,0.7-0.7c0.2-0.3,0.2-0.6,0.2-1
	c0-0.3-0.1-0.7-0.3-0.9L14,10.1c-0.2-0.3-0.4-0.7-0.4-1.1c0-0.4,0.1-0.8,0.4-1.1L14.7,7C14.9,6.7,15,6.4,15,6c0-0.3-0.1-0.7-0.2-1
	c-0.2-0.3-0.4-0.5-0.7-0.7c-0.3-0.2-0.6-0.2-1-0.2L12,4.4c-0.4,0-0.8,0-1.1-0.2c-0.3-0.2-0.6-0.5-0.8-0.9l-0.5-1
	C9.4,1.9,9.2,1.6,8.9,1.5C8.7,1.3,8.3,1.2,8,1.2c-0.3,0-0.7,0.1-0.9,0.3C6.8,1.6,6.6,1.9,6.4,2.2L6,3.2C5.8,3.6,5.5,3.9,5.2,4.1
	C4.8,4.3,4.4,4.4,4,4.4L2.9,4.2c-0.3,0-0.7,0-1,0.2C1.6,4.6,1.4,4.8,1.2,5.1C1.1,5.4,1,5.7,1,6C1,6.4,1.1,6.7,1.3,7L2,7.9
	C2.2,8.2,2.4,8.6,2.4,9c0,0.4-0.1,0.8-0.4,1.1L1.3,11C1.1,11.3,1,11.6,1,12c0,0.3,0.1,0.7,0.2,1c0.2,0.3,0.4,0.5,0.7,0.7
	c0.3,0.2,0.6,0.2,1,0.2L4,13.6c0.4,0,0.8,0,1.1,0.2C5.5,14.1,5.8,14.4,6,14.8z"/>
<path class="st0" d="M8,11.3c1.3,0,2.3-1,2.3-2.3S9.3,6.7,8,6.7c-1.3,0-2.3,1-2.3,2.3S6.7,11.3,8,11.3z"/>
</svg>
