<?xml version="1.0" encoding="utf-8"?>
<!-- Generator: Adobe Illustrator 27.2.0, SVG Export Plug-In . SVG Version: 6.00 Build 0)  -->
<svg version="1.1" id="Layer_1" xmlns="http://www.w3.org/2000/svg" xmlns:xlink="http://www.w3.org/1999/xlink" x="0px" y="0px"
	 viewBox="0 0 635.3 317.2" style="enable-background:new 0 0 635.3 317.2;" xml:space="preserve">
<style type="text/css">
	.st0{fill-rule:evenodd;clip-rule:evenodd;fill:#FFFFFF;}
</style>
<g>
	<g>
		<path class="st0" d="M599.7,0H35.5C16,0,0.2,15.8,0.2,35.2H635C635,15.8,619.2,0,599.7,0L599.7,0z"/>
		<path class="st0" d="M35.3,317.2h564.2c19.4,0,35.2-15.8,35.2-35.2H0C0,301.5,15.8,317.2,35.3,317.2z"/>
		<path class="st0" d="M159,158.8c0,29.2-23.7,52.9-52.9,52.9S53.2,188,53.2,158.8s23.7-52.9,52.9-52.9S159,129.6,159,158.8
			L159,158.8z M617.3,158.8c0,48.7-39.5,88.2-88.2,88.2s-88.2-39.5-88.2-88.2s39.5-88.2,88.2-88.2S617.3,110.1,617.3,158.8z
			 M582,158.8c0,29.2-23.7,52.9-52.9,52.9s-52.9-23.6-52.9-52.9s23.7-52.9,52.9-52.9C558.3,105.9,582,129.6,582,158.8L582,158.8z
			 M194.3,158.8c0,48.7-39.5,88.2-88.2,88.2S18,207.5,18,158.8s39.5-88.1,88.2-88.1S194.3,110.1,194.3,158.8L194.3,158.8z
			 M125,264.5H0.2V52.8H438c-10,2.2-19.4,16-20.7,17.7l-47.8,60.8L350,106.1l-22,29.3l19,24.6l-28.5,36.6l-17,21.8
			c-2.1,2.7-3.3,5.8-3.7,9c-0.6,5.9,1.7,11.9,6.7,15.8c4.6,3.5,10.3,4.5,15.5,3.1c3.6-1,6.9-3.1,9.3-6.2l9.5-12.3l0.3-0.4l30.4-38.8
			l40.2,51.5c6,7.7,17.1,9,24.8,3c7.7-6,9-17.1,3-24.7L391.9,160l55.9-73.2c26.8-31.3,53.7-33.8,66.8-34h120.7v211.6H195.9
			c10.4-1.5,20.3-16,21.6-17.8l47.9-60.8l19.8,25.3l22-29.2l-19.4-24.7l28.6-36.6l17-21.8c2.1-2.7,3.3-5.8,3.6-9
			c0.6-5.9-1.7-11.9-6.6-15.8c-4.5-3.5-10.3-4.5-15.4-3.1c-3.6,1-6.9,3-9.3,6.2l-9.6,12.2l-0.3,0.4l-30.3,38.8L225.2,77
			c-6-7.7-17.1-9-24.7-3c-7.7,6-9.1,17.1-3.1,24.7l45.6,58.4l-55.9,73.1C163.2,258.4,139.1,263.6,125,264.5L125,264.5z"/>
	</g>
</g>
</svg>
