<?xml version="1.0" encoding="utf-8"?>
<!-- Generator: Adobe Illustrator 27.2.0, SVG Export Plug-In . SVG Version: 6.00 Build 0)  -->
<svg version="1.1" id="Layer_1" xmlns="http://www.w3.org/2000/svg" xmlns:xlink="http://www.w3.org/1999/xlink" x="0px" y="0px"
	 viewBox="0 0 99.8 52.6" style="enable-background:new 0 0 99.8 52.6;" xml:space="preserve">
<style type="text/css">
	.st0{fill:#FFFFFF;}
	.st1{fill-rule:evenodd;clip-rule:evenodd;fill:#FCB415;}
	.st2{fill-rule:evenodd;clip-rule:evenodd;fill:#E11F26;}
</style>
<g>
	<g>
		<path class="st0" d="M7.9,0h84c4.4,0,7.9,3.5,7.9,7.9v36.8c0,4.4-3.5,7.9-7.9,7.9h-84c-4.4,0-7.9-3.5-7.9-7.9V7.9
			C0,3.6,3.5,0,7.9,0z"/>
		<path class="st0" d="M7.9,0h84c4.4,0,7.9,3.5,7.9,7.9v36.8c0,4.4-3.5,7.9-7.9,7.9h-84c-4.4,0-7.9-3.5-7.9-7.9V7.9
			C0,3.6,3.5,0,7.9,0z"/>
	</g>
	<path class="st1" d="M91.9,2.7h-84C5,2.7,2.7,5.1,2.6,7.9h94.6C97.2,5,94.9,2.7,91.9,2.7L91.9,2.7z"/>
	<path class="st1" d="M7.8,49.9h84.1c2.9,0,5.2-2.4,5.2-5.2H2.6C2.6,47.6,4.9,49.9,7.8,49.9z"/>
	<path class="st2" d="M26.3,26.3c0,4.4-3.5,7.9-7.9,7.9s-7.9-3.5-7.9-7.9s3.5-7.9,7.9-7.9S26.3,22,26.3,26.3L26.3,26.3z M94.6,26.3
		c0,7.3-5.9,13.1-13.1,13.1c-7.3,0-13.1-5.9-13.1-13.1s5.9-13.1,13.1-13.1C88.7,13.2,94.6,19.1,94.6,26.3L94.6,26.3z M89.3,26.3
		c0,4.4-3.5,7.9-7.9,7.9s-7.9-3.5-7.9-7.9s3.5-7.9,7.9-7.9S89.3,22,89.3,26.3L89.3,26.3z M31.5,26.3c0,7.3-5.9,13.1-13.1,13.1
		S5.2,33.6,5.2,26.3s5.9-13.1,13.1-13.1S31.5,19.1,31.5,26.3L31.5,26.3z M21.2,42.1H2.6V10.5h65.3c-1.5,0.3-2.9,2.4-3.1,2.6
		l-7.1,9.1l-2.9-3.8l-3.3,4.4l2.8,3.7L50.1,32l-2.5,3.2c-0.3,0.4-0.5,0.9-0.6,1.3c-0.1,0.9,0.3,1.8,1,2.4c0.7,0.5,1.5,0.7,2.3,0.5
		c0.5-0.1,1-0.4,1.4-0.9l1.4-1.8v-0.1l4.5-5.8l6,7.7c0.9,1.1,2.5,1.3,3.7,0.4c1.1-0.9,1.3-2.5,0.4-3.7l-6.8-8.7l8.3-10.9
		c4-4.7,8-5.1,10-5.1h18V42H31.8c1.5-0.2,3-2.4,3.2-2.7l7.1-9.1l3,3.8l3.3-4.4l-2.9-3.7l4.3-5.5l2.5-3.2c0.3-0.4,0.5-0.9,0.5-1.3
		c0.1-0.9-0.3-1.8-1-2.4c-0.7-0.5-1.5-0.7-2.3-0.5c-0.5,0.1-1,0.4-1.4,0.9l-1.4,1.8v0.1l-4.5,5.8l-6-7.7c-0.9-1.1-2.5-1.3-3.7-0.4
		c-1.1,0.9-1.4,2.5-0.5,3.7l6.8,8.7l-8.3,10.9C26.9,41.2,23.3,41.9,21.2,42.1L21.2,42.1z"/>
</g>
</svg>
