<?xml version="1.0" encoding="utf-8"?>
<!-- Generator: Adobe Illustrator 26.5.1, SVG Export Plug-In . SVG Version: 6.00 Build 0)  -->
<svg version="1.1" id="box" xmlns="http://www.w3.org/2000/svg" xmlns:xlink="http://www.w3.org/1999/xlink" x="0px" y="0px"
	 viewBox="0 0 92.6 110" style="enable-background:new 0 0 92.6 110;" xml:space="preserve">
<style type="text/css">
	.st0{fill:#F5F5F5;}
	.st1{fill:none;}
	.st2{fill:#212121;}
</style>
<path class="st0" d="M91.8,35.5L91.8,35.5L91.8,35.5L57.1,0.8c-0.8-0.8-1.9-1-2.9-0.7L1.9,17.5C0.8,17.9,0,19,0,20.2v53.4
	c0,0.8,0.3,1.5,0.9,2l35,33.6c0.5,0.5,1.2,0.8,1.9,0.8c0.3,0,0.6,0,0.9-0.1l52.1-17c1.1-0.4,1.9-1.5,1.9-2.7V37.5
	C92.6,36.7,92.3,36,91.8,35.5z"/>
<g>
	<polygon class="st1" points="7.2,71.7 34.8,98.2 34.8,56.1 7.2,28.2 	"/>
	<polygon class="st1" points="83.1,37 54.1,8 34.9,14.3 63.2,43.6 	"/>
	<polygon class="st1" points="29.3,16.2 9.5,22.8 38.2,51.9 38.2,51.9 57.6,45.5 	"/>
	<path class="st1" d="M40.1,101.6l45.3-14.8v-45L40.1,56.9V101.6z M63.6,87.2c-14.5,5.4-16.1-9.9-16.1-9.9l30.7-10.2
		C78.2,67.1,78.2,81.8,63.6,87.2z M71.6,52.9c2.3-2.7,5.8-3.6,7.7-2c1.9,1.6,1.6,5.2-0.7,8s-5.8,3.6-7.7,2
		C68.9,59.2,69.2,55.6,71.6,52.9z M47.2,61.1c2.3-2.7,5.8-3.6,7.7-2c1.9,1.6,1.6,5.2-0.7,8c-2.3,2.7-5.8,3.6-7.7,2
		C44.6,67.4,44.9,63.8,47.2,61.1z"/>
	<path class="st2" d="M90,36.3L90,36.3L90,36.3L56.7,3C56,2.3,54.9,2,54,2.3L3.7,19.1c-1.1,0.4-1.8,1.4-1.8,2.5v51.3
		c0,0.7,0.3,1.4,0.8,1.9L36.3,107c0.5,0.5,1.2,0.7,1.9,0.7c0.3,0,0.6,0,0.8-0.1l50-16.3c1.1-0.4,1.9-1.4,1.9-2.6V38.2
		C90.8,37.5,90.5,36.8,90,36.3z M54.1,8l29,29l-19.9,6.6L34.9,14.3L54.1,8z M34.8,98.2L7.2,71.7V28.2l27.5,28V98.2z M38.2,51.9
		L38.2,51.9L9.5,22.8l19.8-6.6l28.3,29.3L38.2,51.9z M85.4,86.9l-45.3,14.8V56.9l45.3-15.1V86.9z"/>
	<path class="st2" d="M78.6,58.9c2.3-2.7,2.6-6.3,0.7-8c-1.9-1.6-5.4-0.8-7.7,2c-2.3,2.7-2.6,6.3-0.7,8
		C72.8,62.5,76.3,61.6,78.6,58.9z"/>
	<path class="st2" d="M54.3,67.1c2.3-2.7,2.6-6.3,0.7-8c-1.9-1.6-5.4-0.8-7.7,2c-2.3,2.7-2.6,6.3-0.7,8
		C48.5,70.7,51.9,69.8,54.3,67.1z"/>
	<path class="st2" d="M63.6,87.2c14.6-5.4,14.6-20.1,14.6-20.1L47.5,77.3C47.5,77.3,49.1,92.5,63.6,87.2z"/>
</g>
</svg>
