<?xml version="1.0" encoding="UTF-8"?>
<svg id="black" xmlns="http://www.w3.org/2000/svg" viewBox="0 0 69.62 213">
  <defs>
    <style>
      .cls-1 {
        fill: #2f2f2f;
      }
    </style>
  </defs>
  <g>
    <g>
      <path class="cls-1" d="m5.82,181.09c.01,17.57,14.25,31.87,31.75,31.91,17.59.03,31.92-14.27,31.91-31.86,0-17.53-14.35-31.89-31.8-31.84-17.57.05-31.87,14.32-31.86,31.79Zm50.59.05c.02,10.28-8.36,18.69-18.65,18.72-10.41.03-18.8-8.28-18.83-18.64-.03-10.39,8.34-18.8,18.68-18.79,10.39,0,18.77,8.34,18.8,18.71Z"/>
      <path class="cls-1" d="m5.82,31.83c-.02,17.3,14.21,31.75,31.31,31.81,17.98.06,32.31-14,32.35-31.75C69.52,14.36,55.27.04,37.75,0,20.16-.04,5.84,14.24,5.82,31.83ZM38.44,13.12c9.92.26,18.24,9.01,17.97,18.9-.29,10.52-8.82,18.86-18.97,18.54-10.84-.34-18.81-8.79-18.5-19.6.3-10.11,9.05-18.11,19.5-17.84Z"/>
    </g>
    <path class="cls-1" d="m8.85,57.51c-4.46-3.58-7.39-8.17-8.85-13.64v22.03c8.46,8.65,18.64,15.05,27.8,22.81-2.81,2.22-5.6,4.44-8.5,6.74.32.28.57.53.85.74,2.78,2.09,5.59,4.15,8.34,6.29.71.55,1.15.45,1.81-.06,2.23-1.73,4.54-3.35,6.74-5.11.79-.63,1.29-.51,2.01.04,6.19,4.73,12.39,9.45,18.63,14.13,1.02.76,2.15,1.42,3.32,1.94,2.53,1.12,5.34.11,7-2.4,1.67-2.52,1.58-5.57-.49-7.38-3.6-3.13-7.33-6.09-11-9.14-2.39-1.98-4.76-3.98-7.29-6.1,4.67-3.82,9.27-7.56,13.83-11.33,1.69-1.4,3.38-2.81,4.95-4.35,1.94-1.9,2.12-4.11.74-6.45-2.12-3.59-5.65-4.62-9.06-2.26-4.8,3.33-9.42,6.93-14.08,10.44-2.52,1.89-4.98,3.86-7.57,5.87-2.37-1.82-4.75-3.6-7.08-5.43-7.37-5.78-14.77-11.53-22.08-17.39Z"/>
  </g>
  <path class="cls-1" d="m69.48,142.51c-5.56-4.92-11.62-9.23-17.43-13.84-1.46-1.16-2.95-2.27-4.54-3.49,2.82-2.32,5.59-4.6,8.49-6.98-.51-.4-.92-.73-1.34-1.05-2.69-2.07-5.41-4.12-8.07-6.23-.64-.5-1.05-.5-1.69.01-2.3,1.84-4.69,3.57-6.97,5.42-.77.62-1.27.55-2-.02-6.24-4.87-12.51-9.71-18.78-14.54-.66-.51-1.38-.92-2.05-1.41-1.91-1.37-3.82-1.12-5.7.03-1.46.89-2.52,2.17-3.11,3.77-.76,2.04-.5,3.98,1.08,5.52,1.45,1.41,3.02,2.71,4.62,3.95,4.62,3.59,9.27,7.12,13.91,10.67.26.2.5.42.84.71-.89.7-1.74,1.36-2.57,2.03-5.21,4.17-10.42,8.34-15.63,12.52-.29.23-.54.51-.8.78-3.16,3.23-2.71,7.11,1.12,9.57,2.39,1.54,4.48,1.53,6.77-.24,6.59-5.11,13.13-10.27,19.69-15.42.52-.41,1.03-.82,1.64-1.3,2.86,2.18,5.72,4.29,8.5,6.5,6.84,5.45,13.74,10.83,20.43,16.46,1.31,1.1,2.5,2.27,3.59,3.5v-16.94Z"/>
</svg>