<?xml version="1.0" encoding="utf-8"?>
<!-- Generator: Adobe Illustrator 27.2.0, SVG Export Plug-In . SVG Version: 6.00 Build 0)  -->
<svg version="1.1" id="black" xmlns="http://www.w3.org/2000/svg" xmlns:xlink="http://www.w3.org/1999/xlink" x="0px" y="0px"
	 viewBox="0 0 75.4 213" style="enable-background:new 0 0 75.4 213;" xml:space="preserve">
<style type="text/css">
	.st0{fill:#2F2F2F;}
</style>
<g>
	<g>
		<path class="st0" d="M5.8,181.1c0,17.6,14.3,31.9,31.7,31.9c17.6,0,31.9-14.3,31.9-31.9c0-17.5-14.4-31.9-31.8-31.8
			C20.1,149.4,5.8,163.6,5.8,181.1L5.8,181.1z M56.4,181.2c0,10.3-8.4,18.7-18.7,18.7c-10.4,0-18.8-8.3-18.8-18.6
			c0-10.4,8.3-18.8,18.7-18.8C48,162.4,56.4,170.8,56.4,181.2L56.4,181.2z"/>
		<path class="st0" d="M5.8,31.8c0,17.3,14.2,31.8,31.3,31.8c18,0.1,32.3-14,32.4-31.7C69.5,14.4,55.3,0,37.7,0
			C20.2,0,5.8,14.2,5.8,31.8L5.8,31.8z M38.4,13.1c9.9,0.3,18.2,9,18,18.9c-0.3,10.5-8.8,18.9-19,18.5C26.6,50.2,18.6,41.8,18.9,31
			C19.2,20.9,28,12.9,38.4,13.1L38.4,13.1z"/>
	</g>
	<path class="st0" d="M8.9,57.5C4.4,53.9,1.5,49.3,0,43.9v22C8.5,74.6,18.6,81,27.8,88.7c-2.8,2.2-5.6,4.4-8.5,6.7
		c0.3,0.3,0.6,0.5,0.8,0.7c2.8,2.1,5.6,4.1,8.3,6.3c0.7,0.6,1.2,0.4,1.8-0.1c2.2-1.7,4.5-3.4,6.7-5.1c0.8-0.6,1.3-0.5,2,0
		c6.2,4.7,12.4,9.5,18.6,14.1c1,0.8,2.2,1.4,3.3,1.9c2.5,1.1,5.3,0.1,7-2.4c1.7-2.5,1.6-5.6-0.5-7.4c-3.6-3.1-7.3-6.1-11-9.1
		c-2.4-2-4.8-4-7.3-6.1c4.7-3.8,9.3-7.6,13.8-11.3c1.7-1.4,3.4-2.8,5-4.3c1.9-1.9,2.1-4.1,0.7-6.4c-2.1-3.6-5.7-4.6-9.1-2.3
		c-4.8,3.3-9.4,6.9-14.1,10.4c-2.5,1.9-5,3.9-7.6,5.9c-2.4-1.8-4.7-3.6-7.1-5.4C23.6,69.1,16.2,63.4,8.9,57.5L8.9,57.5z"/>
	<path class="st0" d="M75.4,148.2c-7-7.5-15.4-13.2-23.3-19.5c-1.5-1.2-3-2.3-4.5-3.5c2.8-2.3,5.6-4.6,8.5-7c-0.5-0.4-0.9-0.7-1.3-1
		c-2.7-2.1-5.4-4.1-8.1-6.2c-0.6-0.5-1-0.5-1.7,0c-2.3,1.8-4.7,3.6-7,5.4c-0.8,0.6-1.3,0.6-2,0c-6.2-4.9-12.5-9.7-18.8-14.5
		c-0.7-0.5-1.4-0.9-2-1.4c-1.9-1.4-3.8-1.1-5.7,0c-1.5,0.9-2.5,2.2-3.1,3.8c-0.8,2-0.5,4,1.1,5.5c1.4,1.4,3,2.7,4.6,4
		c4.6,3.6,9.3,7.1,13.9,10.7c0.3,0.2,0.5,0.4,0.8,0.7c-0.9,0.7-1.7,1.4-2.6,2c-5.2,4.2-10.4,8.3-15.6,12.5c-0.3,0.2-0.5,0.5-0.8,0.8
		c-3.2,3.2-2.7,7.1,1.1,9.6c2.4,1.5,4.5,1.5,6.8-0.2c6.6-5.1,13.1-10.3,19.7-15.4c0.5-0.4,1-0.8,1.6-1.3c2.9,2.2,5.7,4.3,8.5,6.5
		c6.8,5.4,13.7,10.8,20.4,16.5c4.7,4,8.2,8.8,9.5,14.8L75.4,148.2L75.4,148.2z"/>
</g>
</svg>
