<?xml version="1.0" encoding="utf-8"?>
<!-- Generator: Adobe Illustrator 27.2.0, SVG Export Plug-In . SVG Version: 6.00 Build 0)  -->
<svg version="1.1" id="Layer_1" xmlns="http://www.w3.org/2000/svg" xmlns:xlink="http://www.w3.org/1999/xlink" x="0px" y="0px"
	 viewBox="0 0 27.7 11" style="enable-background:new 0 0 27.7 11;" xml:space="preserve">
<style type="text/css">
	.st0{fill:#D3D3D3;}
</style>
<g>
	<path class="st0" d="M0.2,11C2.4,7.6,4.6,4.3,6.9,1c0,0-0.1,0-0.1,0C5.4,1,4,1,2.6,1C2.5,1,2.5,1,2.5,1C1.7,1.6,0.9,2.2,0.1,2.8
		c0,0-0.1,0.1-0.1,0.1C0.3,1.9,0.7,1,1.1,0c2.9,0,5.7,0,8.6,0C9.3,0.5,9,1,8.7,1.4c-0.3,0.5-0.6,1-1,1.4c-0.3,0.5-0.6,1-1,1.4
		c-0.3,0.5-0.6,1-0.9,1.4c-0.3,0.5-0.6,1-1,1.4c-0.3,0.5-0.6,1-1,1.4C3.6,9,3.3,9.5,3,10c0,0,0.1,0,0.1,0c1.5,0,3,0,4.5,0
		c0,0,0.1,0,0.1,0c0.6-0.5,1.2-1.1,1.8-1.6c0,0,0,0,0,0c0,0,0.1-0.1,0.1-0.1c0-0.1,0-0.1,0-0.2c0-1.8,0-3.7,0-5.5c0,0,0-0.1,0-0.1
		c0,0,0-0.1-0.1-0.1C9.5,2.3,9.3,2.1,9.1,2C9,1.9,8.9,1.8,8.8,1.7c0,0,0,0-0.1,0c0,0,0,0,0,0l0,0c2.6,0,5.3,0,7.9,0c0,0,0,0,0.1,0
		c0,0,0,0.1-0.1,0.1c-0.2,0.1-0.4,0.3-0.6,0.5c-0.1,0.1-0.1,0.1-0.2,0.2c0,0,0,0,0,0.1c0,0,0,0,0,0c0,1.9,0,3.8,0,5.7
		c0,0,0,0.1,0,0.1c0.2,0,0.5,0,0.7,0c0.4-0.9,0.7-1.9,1.1-2.8c0,0,0,0,0,0c0,0.1,0,0.2,0,0.3c0,0.1,0,0.2,0,0.3c0,0.1,0,0.2,0,0.3
		s0,0.2,0,0.3c0,0.1,0,0.2,0,0.3s0,0.2,0,0.3c0,0.1,0,0.2,0,0.3s0,0.2,0,0.3s0,0.2,0,0.3c0,0.1,0,0.2,0,0.3c0,0,0,0,0.1,0
		c0.2-0.1,0.4-0.3,0.5-0.4c0,0,0.1-0.1,0.1-0.1c0-1.9,0-3.8,0-5.8c0-0.1,0-0.1-0.1-0.1c-0.3-0.2-0.5-0.4-0.8-0.6c0,0,0,0-0.1-0.1
		c0,0,0.1,0,0.1,0c0.4,0,0.9,0,1.3,0c0.2,0,0.5,0,0.7,0c0.4,0,0.9,0.1,1.3,0.3c0.6,0.3,1.1,0.7,1.4,1.3c0.2,0.4,0.3,0.8,0.3,1.2
		c0.1,0.5,0.1,0.9,0,1.4c0,0.5-0.1,1-0.4,1.5c-0.3,0.5-0.6,1-1.1,1.3c-0.3,0.2-0.7,0.3-1.1,0.3c-0.2,0-0.5,0-0.7,0
		C16,9,12.8,9,9.6,9c0,0-0.1,0-0.1,0C9.3,9.7,9,10.4,8.8,11C5.9,11,3.1,11,0.2,11z M12.6,4C12.6,4,12.6,4,12.6,4
		C12.6,4,12.6,4,12.6,4c0,0.9,0,1.8,0,2.6l0,0c0,0,0,0,0,0c0,0,0-0.1-0.1-0.1c-0.2-0.3-0.4-0.6-0.6-0.9c0,0-0.1-0.1-0.1-0.1
		c-0.2,0-0.4,0-0.6,0c0,0,0,0-0.1,0c0,0.1,0,2.6,0,2.7c0.4,0,0.9,0,1.3,0c0,0,0-0.1,0-0.1c0.2-0.6,0.5-1.3,0.7-1.9
		c0.1-0.2,0.2-0.5,0.3-0.7c0,0,0-0.1,0.1-0.1c0,1.1,0,2.2,0,3.3c0,0,0.1,0,0.1-0.1c0.2-0.1,0.4-0.3,0.6-0.5c0.1,0,0.1-0.1,0.1-0.1
		c0-1.4,0-2.7,0-4.1c0-0.5,0-1.1,0-1.7c0-0.1,0-0.1-0.1-0.1C14,2.2,13.8,2,13.6,1.8c0,0,0,0-0.1,0c0,0,0,0,0,0l0,0l0,0v0
		c0,0.9,0,1.8,0,2.6v0l0,0l0,0v0l0,0c0,0,0,0,0,0c0-0.1-0.1-0.2-0.1-0.2c0-0.1-0.1-0.2-0.1-0.3c0-0.1-0.1-0.2-0.1-0.3
		s-0.1-0.2-0.1-0.3S13,3.3,13,3.2c0-0.1-0.1-0.2-0.1-0.3s-0.1-0.2-0.1-0.3c0-0.1-0.1-0.2-0.1-0.3c0-0.1-0.1-0.2-0.1-0.2
		c-0.2,0-1.2,0-1.3,0c0,0.9,0,1.7,0,2.6c0,0,0,0,0,0c0.2,0,0.4,0,0.7,0c0,0,0.1,0,0.1-0.1c0.1-0.2,0.3-0.4,0.5-0.6
		C12.4,4.2,12.5,4.1,12.6,4z M19.7,2.4c0,2,0,4,0,6c0.1,0,0.1,0,0.1,0C20,8.2,20.1,8.1,20.3,8c0.2-0.2,0.4-0.4,0.5-0.7
		c0.2-0.4,0.3-0.9,0.3-1.4c0-0.3,0-0.7,0-1c0-0.4-0.1-0.8-0.2-1.2c-0.1-0.3-0.2-0.6-0.4-0.8c-0.1-0.2-0.3-0.3-0.5-0.4
		C19.8,2.4,19.8,2.4,19.7,2.4z M5.5,4.6C5.5,4.5,5.6,4.5,5.5,4.6c0.2-0.1,0.4-0.2,0.6-0.3c0.1,0,0.1-0.1,0.1-0.1
		c0.2-0.4,0.5-0.9,0.7-1.3c0.3-0.6,0.7-1.3,1-1.9c0,0,0,0,0-0.1c0,0,0,0-0.1,0.1c-0.5,0.6-1,1.2-1.5,1.9C6.1,3.2,5.8,3.5,5.6,3.9
		c0,0,0,0.1,0,0.1C5.5,4.2,5.5,4.4,5.5,4.6z M1.7,10.2C1.7,10.2,1.7,10.2,1.7,10.2C1.8,10.2,1.8,10.1,1.7,10.2
		C2.2,9.6,2.7,9,3.1,8.5c0.3-0.4,0.7-0.9,1.1-1.3c0,0,0-0.1,0-0.1c0-0.2,0-0.3,0-0.5c0,0,0,0,0,0c0,0,0,0-0.1,0
		C4,6.6,3.8,6.7,3.6,6.8c0,0-0.1,0.1-0.1,0.1C3.4,7.1,3.3,7.4,3.2,7.6C2.7,8.4,2.3,9.3,1.7,10.2C1.8,10.1,1.7,10.2,1.7,10.2z
		 M5.3,5.7c0-0.2-0.1-0.4-0.1-0.7C4.9,5.1,4.7,5.2,4.5,5.3c0,0.2,0,0.5,0.1,0.7C4.8,5.9,5,5.8,5.3,5.7z"/>
	<path class="st0" d="M24.4,9c0-0.1,0.1-0.1,0.1-0.1c0.1,0,0.1-0.1,0.1-0.1c0.1,0,0.1-0.1,0.1-0.1c0.1,0,0.1-0.1,0.1-0.1
		c0.1,0,0.1-0.1,0.1-0.1c-0.1-0.6-0.3-1.2-0.4-1.8c-0.4,0-0.9,0-1.3,0c-0.1,0.6-0.3,1.2-0.5,1.7c0,0,0,0,0.1,0.1
		c0.2,0.2,0.4,0.3,0.6,0.5c0,0,0.1,0,0.1,0.1c-0.9,0-1.7,0-2.6,0c0,0,0-0.1,0.1-0.1c0.2-0.2,0.4-0.3,0.6-0.5C21.9,8.4,22,8.4,22,8.3
		c0,0,0.1-0.1,0.1-0.1c0.3-1,0.5-1.9,0.8-2.9c0.3-1,0.5-2,0.8-2.9c0,0,0,0,0-0.1c-0.3-0.2-0.6-0.5-0.9-0.7c0,0,0,0,0,0l0,0
		c0,0,0,0,0.1,0c0.7,0,1.4,0,2.1,0c0,0.1,0,0.1,0,0.2c0.3,1.4,0.7,2.7,1.1,4.1c0.2,0.8,0.4,1.5,0.6,2.3c0,0.1,0,0.1,0.1,0.1
		c0.3,0.2,0.5,0.4,0.8,0.6c0,0,0.1,0,0.1,0.1c0,0,0,0,0,0l0,0c0,0,0,0,0,0C26.6,9,25.5,9,24.4,9C24.4,9,24.4,9,24.4,9z M24.2,4.1
		c-0.2,0.6-0.3,1.2-0.5,1.8c0.1,0,0.9,0,0.9,0C24.5,5.3,24.3,4.7,24.2,4.1C24.2,4.1,24.2,4.1,24.2,4.1z"/>
</g>
</svg>
