<?xml version="1.0" encoding="utf-8"?>
<!-- Generator: Adobe Illustrator 26.5.1, SVG Export Plug-In . SVG Version: 6.00 Build 0)  -->
<svg version="1.1" id="Capa_1" xmlns="http://www.w3.org/2000/svg" xmlns:xlink="http://www.w3.org/1999/xlink" x="0px" y="0px"
	 viewBox="0 0 76 76" style="enable-background:new 0 0 76 76;" xml:space="preserve">
<style type="text/css">
	.st0{fill:#212121;}
</style>
<path class="st0" d="M75,70L56.1,51.2c4.3-5.4,6.9-12.2,6.9-19.7C63,14.1,48.9,0,31.5,0S0,14.1,0,31.5S14.1,63,31.5,63
	c7.4,0,14.3-2.6,19.7-6.9L70,75c0.7,0.7,1.6,1,2.5,1s1.8-0.3,2.5-1C76.3,73.6,76.3,71.4,75,70z M31.5,56C18,56,7,45,7,31.5
	S18,7,31.5,7S56,18,56,31.5S45,56,31.5,56z"/>
</svg>
