<?xml version="1.0" encoding="utf-8"?>
<!-- Generator: Adobe Illustrator 27.2.0, SVG Export Plug-In . SVG Version: 6.00 Build 0)  -->
<svg version="1.1" id="box" xmlns="http://www.w3.org/2000/svg" xmlns:xlink="http://www.w3.org/1999/xlink" x="0px" y="0px"
	 viewBox="0 0 92.7 55.2" style="enable-background:new 0 0 92.7 55.2;" xml:space="preserve">
<style type="text/css">
	.st0{fill:#1B4332;}
</style>
<g>
	<path class="st0" d="M92.6,3.6c-1,3.1-2,6.2-3,9.4c-0.1,0.2-0.1,0.4-0.2,0.6c-0.3,1-0.9,1.5-2,1.6c-2.6,0.3-5.1,0.6-7.7,0.9
		c-2.7,0.4-5.2,0.6-7.9,0.9c-1.8,0.3-3.8,0.5-5.6,0.7c-0.5,0.1-0.9,0.1-1.3,0.1c0,0.9,0,1.7,0,2.6c7.2,0.6,14.5,1.4,21.9,2.1
		c-1.5,2.9-2.9,5.9-4.5,8.9c-6.1-2.1-11.9-4.5-17.9-6.7c-0.3,0.7-0.6,1.5-0.8,2.1c0,0.1,0.1,0.3,0.2,0.4c4,3,8.2,6.1,12.2,9.1
		c0.4,0.3,0.7,0.6,1.3,0.9c-2.2,1.6-4.3,2.9-6.5,4.4c-3.1-3.7-6.2-7.3-9.4-11c-0.6,0.6-1.3,1-1.9,1.6c1.6,3.7,3.2,7.3,4.9,11.1
		c-1.4,0.4-2.8,0.6-4.1,0.9c-0.5,0.1-0.9,0.2-1.4,0.4s-0.6,0-0.7-0.5c-0.3-1.6-0.6-3-0.9-4.6c-0.3-1.7-0.6-3.3-0.9-5
		c-0.1-0.6-0.6-0.4-0.9-0.4c-0.6,0-1.1,0-1.7-0.2c-1.8-0.6-2.8-2.8-1.9-4.5c0.4-0.8,1-1.2,1.7-1.5c1.9-0.6,3.8-1.7,5.2-3.1
		c0.7-0.6,1.3-1.4,1.6-2.4c0-0.2,0.1-0.3,0.1-0.5c-9.4,0-18.8,0-28.3,0C37,14.5,41.6,7.2,46.3,0h0.1c0.7,1.2,1.5,2.4,2.2,3.6
		c3.7,5.7,7.4,11.3,11.1,17c0.3,0.5,0.6,0.8,0.8,1.3c0.5-0.6,0.6-1.4,0.6-2.1c0.2-3.4-0.3-6.6-1.7-9.7c-0.3-0.6-0.6-1.4-0.8-2
		c2.1,1.5,3.8,3.2,4.9,5.6c0.5-0.2,1-0.3,1.5-0.5c3.3-1.2,6.6-2.4,9.9-3.6c4.8-1.7,9.6-3.5,14.4-5.1c1.1-0.4,2.2-0.7,3.4-1.2
		C92.6,3.5,92.6,3.6,92.6,3.6z M53.2,11.4c-4.7,0-9.3,0-13.9,0c2.3,3.6,4.5,7.2,7.1,10.6C48.6,18.4,50.9,14.9,53.2,11.4z"/>
	<path class="st0" d="M0,3.4C0.9,3.7,1.9,4,2.8,4.3C9,6.6,15.2,8.8,21.4,11.1c2.6,0.9,5.1,1.8,7.7,2.7c1.1-2.3,2.7-4.2,4.9-5.6
		c-0.5,1.3-0.9,2.6-1.4,3.8c-0.6,1.9-1.2,3.9-1.3,6c-0.2,4.3,1.7,7.4,5.9,9.4c0.9,0.5,1.8,0.8,2.7,1.3c1.2,0.7,1.6,1.6,1.2,2.9
		c-0.5,1.8-1.6,2.8-3.5,2.8c-0.4,0-0.7,0-1.1,0c-0.6,3.5-1.4,7-2,10.5c-2.1-0.5-4.1-0.9-6.3-1.4c1.7-3.8,3.3-7.4,5-11.1
		c-0.6-0.6-1.3-1-1.9-1.6c-0.7,0.9-1.6,1.8-2.3,2.8c-2.1,2.6-4.3,5.1-6.4,7.7c-0.4,0.4-0.6,0.5-1,0.2c-1.7-1.2-3.5-2.4-5.2-3.5
		c-0.2-0.2-0.5-0.4-0.6-0.6c0.5-0.4,0.9-0.7,1.4-1.1c3.9-2.9,8-5.9,11.9-8.8c0.2-0.2,0.3-0.3,0.2-0.5c-0.3-0.6-0.6-1.3-0.9-2.1
		c-5.9,2.2-11.8,4.5-17.8,6.7c-1.6-2.9-3.2-5.9-4.5-9c1.7-0.2,3.1-0.3,4.7-0.5c1.4-0.2,2.8-0.3,4.2-0.5c1.4-0.1,2.8-0.2,4.2-0.4
		c2.2-0.2,4.4-0.4,6.5-0.6c0.6-0.1,1.3-0.1,1.9-0.2c0.1,0,0.3-0.2,0.3-0.4c0-0.6,0-1.3,0-1.9c0-0.1,0-0.2,0-0.3
		c-1-0.1-1.9-0.3-2.8-0.4c-2.8-0.4-5.8-0.7-8.6-1.1c-3.7-0.5-7.3-0.9-11-1.4c-0.1,0-0.3-0.1-0.4-0.1c-1,0.1-1.4-0.5-1.7-1.4
		c-1.1-2.8-2.1-5.8-3.1-8.9C0.2,4.2,0.1,3.9,0,3.6C0,3.6,0,3.5,0,3.4z"/>
	<path class="st0" d="M53,38.1c-1.1,0.6-2.1,1.3-3.2,1.8c-1.5,0.8-1.8,2.1-1.6,3.7c0.2,0.8,0.5,1.7,0.7,2.5c0.1,0.3,0.1,0.6,0,0.9
		c-0.6,2-1.4,4-2,6.1c-0.2,0.6-0.5,1.3-0.6,2.1c-0.5-1-0.8-2-1.2-2.9c-0.6-1.6-1.3-3.1-1.9-4.7C43,47,43,46.6,43.3,46
		c0.6-1.3,0.8-2.8,0.7-4.2c0-0.3-0.2-0.6-0.4-0.8c-1-1.1-2.2-1.8-3.5-2.5c-0.3-0.2-0.6-0.3-0.8-0.5c1.5-1.2,2.7-2.6,3-4.4
		c0.3-1.7,1.2-3,2-4.4c0.8-1.3,1.3-2.8,1.6-4.2c0-0.1,0.1-0.3,0.2-0.4c0.1,0.1,0.2,0.2,0.3,0.3c0.2,0.6,0.4,1.2,0.6,1.7
		c0.4,1.2,0.8,2.3,1.7,3.4c0.9,1.2,1.3,2.7,1.7,4c0.4,1.2,1.1,2.3,2.1,3.1C52.6,37.5,52.8,37.8,53,38.1z"/>
	<path class="st0" d="M55.7,54c-0.3-0.2-0.5-0.3-0.6-0.5c-0.9-0.8-1.9-1.7-2.8-2.5c-0.3-0.3-0.6-0.6-0.7-0.9c-0.4-0.7,0-1.4,0.8-1.4
		c0.4,0,0.7,0,1.2,0c-0.1-0.2-0.1-0.3-0.2-0.4c-0.7-1.1-1.5-2.3-2.2-3.4c-0.3-0.6-0.6-1.2-0.6-1.7c-0.1-0.6,0.2-1,0.7-1.3
		c1.2-0.5,2.1-0.1,2.7,1.1c0.8,1.7,1.7,3.5,2.4,5.3c0.1,0.3,0.3,0.5,0.6,0.5c1.8,0,3.7-0.1,5.5-0.1c0.6,0,1.1,0.1,1.7,0.2
		c0.6,0.1,0.6,0.4,0.4,0.8s-0.5,0.8-0.8,1.1c-0.7,0.6-1.6,1.2-2.4,1.8c-1,0.7-1.9,1.5-2.9,2.3c-0.1,0-0.1,0.1-0.3,0.2
		c0.6-1.5,1-2.8,1.5-4.1c-1.7,0-3.2,0-4.9,0C55.1,51.9,55.4,52.9,55.7,54z"/>
	<path class="st0" d="M38.9,48.6c0.5,0,0.8,0,1.1,0c0.4,0,0.7,0.1,1,0.6c0.2,0.5,0.1,0.8-0.2,1.2c-0.5,0.5-0.9,0.9-1.5,1.4
		c-0.8,0.7-1.7,1.4-2.6,2.1c0.3-1,0.6-2,0.8-3c-1.6,0-3.1,0-4.9,0c0.5,1.4,1,2.8,1.5,4L34,55c-0.4-0.3-0.7-0.6-1.1-0.8
		c-1.5-1.1-2.8-2.2-4.2-3.4c-0.4-0.3-0.7-0.7-1-1.1S27.5,49.1,28,49s0.9-0.2,1.4-0.2c2,0,4,0,6,0c0.4,0,0.5-0.1,0.6-0.4
		c0.7-1.7,1.5-3.2,2.2-4.9c0.2-0.5,0.5-0.9,0.8-1.3c0.6-0.6,1.4-0.7,2-0.3c0.6,0.5,1,1.5,0.6,2.2c-0.6,1.1-1.3,2.2-1.9,3.3
		C39.5,47.7,39.2,48.2,38.9,48.6z"/>
</g>
</svg>
