<?xml version="1.0" encoding="utf-8"?>
<!-- Generator: Adobe Illustrator 27.2.0, SVG Export Plug-In . SVG Version: 6.00 Build 0)  -->
<svg version="1.1" id="logo-login_copia" xmlns="http://www.w3.org/2000/svg" xmlns:xlink="http://www.w3.org/1999/xlink" x="0px"
	 y="0px" viewBox="0 0 35.2 11" style="enable-background:new 0 0 35.2 11;" xml:space="preserve">
<style type="text/css">
	.st0{fill:#FFFFFF;}
</style>
<g>
	<path class="st0" d="M0,5.3V0.1h1.9c0.7,0,1.3,0.2,1.7,0.7c0.4,0.5,0.6,1.2,0.6,1.9S4.1,4,3.7,4.5C3.2,5,2.6,5.3,1.8,5.3
		C1.8,5.3,0,5.3,0,5.3z M0.9,4.5h0.8c0.4,0,0.8-0.1,1.1-0.5c0.3-0.3,0.4-0.8,0.4-1.4c0-0.5-0.1-0.9-0.4-1.3c-0.3-0.4-0.6-0.5-1-0.5
		H0.9V4.5z"/>
	<path class="st0" d="M8.5,5.3H5.1V0.1h3.3v0.8H6v1.4H8V3H6v1.4h2.4V5.3z"/>
	<path class="st0" d="M8.7,4l0.9-0.2c0.1,0.5,0.5,0.8,1.2,0.8c0.4,0,0.6-0.1,0.8-0.2c0.1-0.1,0.3-0.3,0.3-0.5c0-0.1-0.1-0.3-0.1-0.4
		c-0.1-0.1-0.3-0.2-0.5-0.3l-1-0.3C9.9,2.9,9.7,2.7,9.6,2.7C9.4,2.5,9.3,2.4,9.2,2.2S9.1,1.7,9.1,1.5c0-0.4,0.1-0.9,0.5-1.1
		C9.9,0.1,10.4,0,10.9,0c0.4,0,0.9,0.1,1.2,0.3s0.6,0.5,0.6,0.8l-0.9,0.2c-0.1-0.4-0.4-0.6-0.9-0.6c-0.3,0-0.5,0.1-0.6,0.2
		c-0.1,0.1-0.2,0.3-0.2,0.4c0,0.3,0.2,0.5,0.7,0.6l0.9,0.2c0.5,0.1,0.9,0.4,1.1,0.6C12.9,3.1,13,3.4,13,3.7c0,0.5-0.2,0.9-0.6,1.2
		c-0.4,0.3-0.9,0.4-1.5,0.4C10.4,5.3,10,5.3,9.6,5C9.1,4.8,8.8,4.5,8.7,4z"/>
	<path class="st0" d="M14.7,5.3h-0.9V0.1h0.9V5.3z"/>
	<path class="st0" d="M19.7,2.6v2.7h-0.4L19,4.5c-0.3,0.5-0.8,0.8-1.4,0.8c-0.7,0-1.2-0.3-1.6-0.8c-0.4-0.5-0.5-1.2-0.5-1.9
		s0.2-1.4,0.6-1.9C16.5,0.3,17,0,17.8,0c0.5,0,0.9,0.1,1.3,0.4s0.6,0.6,0.6,1.2l-0.8,0.1c-0.1-0.6-0.5-0.9-1.1-0.9
		c-0.4,0-0.6,0.1-0.9,0.4S16.6,2,16.6,2.6c0,1.3,0.4,1.9,1.2,1.9c0.3,0,0.6-0.1,0.8-0.4c0.2-0.2,0.3-0.5,0.3-0.9h-1.2V2.6H19.7z"/>
	<path class="st0" d="M24.7,5.3h-0.9l-1.9-3.3c0-0.1-0.1-0.1-0.1-0.2c0-0.1-0.1-0.1-0.1-0.2v3.8h-0.7V0.1h1l1.8,3
		c0,0,0.1,0.2,0.4,0.6V0.1h0.7V5.3z"/>
	<path class="st0" d="M8.7,9.7l0.9-0.2c0.1,0.5,0.5,0.8,1.2,0.8c0.4,0,0.6-0.1,0.8-0.2c0.1-0.1,0.3-0.3,0.3-0.5
		c0-0.1-0.1-0.3-0.1-0.4c-0.1-0.1-0.3-0.2-0.5-0.3l-1-0.3C9.9,8.6,9.7,8.4,9.6,8.3C9.4,8.2,9.3,8.1,9.2,7.8C9.1,7.6,9.1,7.4,9.1,7.2
		c0-0.4,0.1-0.9,0.5-1.1c0.4-0.3,0.8-0.4,1.3-0.4c0.4,0,0.9,0.1,1.2,0.3c0.4,0.2,0.6,0.5,0.6,0.8L11.9,7c-0.1-0.4-0.4-0.6-0.9-0.6
		c-0.3,0-0.5,0.1-0.6,0.2c-0.1,0.1-0.2,0.3-0.2,0.4c0,0.3,0.2,0.5,0.7,0.6l0.9,0.2c0.5,0.1,0.9,0.4,1.1,0.6C12.9,8.8,13,9.1,13,9.4
		c0,0.5-0.2,0.9-0.6,1.2c-0.4,0.3-0.9,0.4-1.5,0.4c-0.5,0-0.9-0.1-1.4-0.3C9.1,10.5,8.8,10.2,8.7,9.7z"/>
	<path class="st0" d="M15.7,11h-1V8.8l-1.8-3H14L15.2,8l1.2-2.2h0.9l-1.7,3L15.7,11L15.7,11z"/>
	<path class="st0" d="M17.2,9.7l0.9-0.2c0.1,0.5,0.5,0.8,1.2,0.8c0.4,0,0.6-0.1,0.8-0.2c0.1-0.1,0.3-0.3,0.3-0.5
		c0-0.1-0.1-0.3-0.1-0.4C20.2,9.1,20,9,19.8,8.9l-1-0.3c-0.4-0.1-0.6-0.2-0.7-0.3c-0.1-0.1-0.3-0.3-0.4-0.5
		c-0.1-0.2-0.1-0.4-0.1-0.6c0-0.4,0.1-0.9,0.5-1.1c0.4-0.3,0.8-0.4,1.3-0.4c0.4,0,0.9,0.1,1.2,0.3c0.4,0.2,0.6,0.5,0.6,0.8L20.4,7
		c-0.1-0.4-0.4-0.6-0.9-0.6c-0.3,0-0.5,0.1-0.6,0.2c-0.1,0.1-0.2,0.3-0.2,0.4c0,0.3,0.2,0.5,0.7,0.6l0.9,0.2
		c0.5,0.1,0.9,0.4,1.1,0.6c0.2,0.3,0.3,0.6,0.3,0.9c0,0.5-0.2,0.9-0.6,1.2c-0.4,0.3-0.9,0.4-1.5,0.4c-0.5,0-0.9-0.1-1.4-0.3
		C17.6,10.5,17.3,10.2,17.2,9.7z"/>
	<path class="st0" d="M24,11h-1V6.6h-1.4V5.8h3.7v0.8H24C24,6.6,24,11,24,11z"/>
	<path class="st0" d="M29.3,11h-3.4V5.8h3.3v0.8h-2.4v1.4h1.9v0.7h-1.9v1.4h2.4V11z"/>
	<path class="st0" d="M35.2,11h-0.9V6.5L32.8,11h-0.5l-1.4-4.5V11h-0.8V5.8h1.4l1.1,3.3l1.1-3.3h1.4L35.2,11L35.2,11z"/>
</g>
</svg>
