<?xml version="1.0" encoding="UTF-8"?><svg id="box" xmlns="http://www.w3.org/2000/svg" viewBox="0 0 92.62 110"><defs><style>.cls-1{fill:#212121;}</style></defs><path class="cls-1" d="M91.81,35.49L57.14,.82c-.75-.75-1.86-1.01-2.86-.68L1.91,17.55c-1.14,.38-1.91,1.45-1.91,2.65v53.42c0,.76,.31,1.49,.86,2.02l34.99,33.58c.53,.51,1.23,.78,1.94,.78,.29,0,.58-.05,.87-.14l52.05-16.99c1.15-.38,1.93-1.45,1.93-2.66V37.46c0-.74-.29-1.45-.82-1.98ZM54.4,5.99l30.25,30.25-20.72,6.89L34.43,12.63l19.97-6.64Zm-16.55,45.8L7.94,21.44l20.61-6.85,29.49,30.5-20.19,6.71ZM5.59,27.03l28.69,29.12v43.82L5.59,72.43V27.03ZM39.87,103.58V57.02l47.16-15.68v46.85l-47.16,15.39Z"/><ellipse class="cls-1" cx="76.3" cy="55.9" rx="6.79" ry="4.81" transform="translate(-15.68 77.98) rotate(-49.73)"/><ellipse class="cls-1" cx="50.94" cy="64.45" rx="6.79" ry="4.81" transform="translate(-31.16 61.65) rotate(-49.73)"/><path class="cls-1" d="M64.32,88.54c15.24-5.61,15.2-20.9,15.2-20.9l-31.99,10.63s1.64,15.85,16.79,10.27Z"/></svg>