<?xml version="1.0" encoding="utf-8"?>
<!-- Generator: Adobe Illustrator 27.2.0, SVG Export Plug-In . SVG Version: 6.00 Build 0)  -->
<svg version="1.1" id="black" xmlns="http://www.w3.org/2000/svg" xmlns:xlink="http://www.w3.org/1999/xlink" x="0px" y="0px"
	 viewBox="0 0 85.4 213.8" style="enable-background:new 0 0 85.4 213.8;" xml:space="preserve">
<style type="text/css">
	.st0{fill:#1B4332;}
</style>
<g>
	<path class="st0" d="M84.9,212.3c-26.2-17-51.8-34-77.3-51.8v0.8c0,10.9,0,21.6,0,32.5c0,0.8,0,0.8,0,0.8
		c4.6,6.1,9.2,12.4,13.9,18.5l0.8,0.8c-7.7-2.3-14.7-5.4-22.4-8.5c0-22.4,0-44,0-66.5c3.8,3.1,7.7,5.4,10.9,7.7
		c3.8,2.3,7.7,4.6,10.9,7.7c3.8,2.3,7.7,4.6,10.9,7.7c3.8,2.3,7.7,4.6,10.9,6.9c3.8,2.3,7.7,4.6,10.9,7.7c3.8,2.3,7.7,4.6,10.9,7.7
		c4.6,1.5,8.5,3.8,12.4,6.1v-0.4c0-11.6,0-23.2,0-34.8v-0.8c-3.8-4.6-8.5-9.2-12.4-13.9l0,0l-0.8-0.8c-0.8,0-0.8,0-1.5,0
		c-13.9,0-28.6,0-42.5,0h-0.8c0,0-0.8,0-0.8,0.8c-0.8,0-2.3,1.5-3.1,3.1c-0.8,0.8-1.5,1.5-2.3,2.3c0,0,0,0,0,0.8l0,0l0,0
		c0-20.1,0-40.9,0-61c0,0,0,0,0-0.8c0,0,0.8,0,0.8,0.8c0.8,1.5,2.3,3.1,3.8,4.6c0.8,0.8,0.8,0.8,1.5,1.5c0,0,0,0,0.8,0l0,0
		c14.7,0,29.4,0,44,0h0.8c0-1.5,0-3.8,0-5.4c-6.9-3.1-14.7-5.4-21.6-8.5l0,0c0.8,0,1.5,0,2.3,0c0.8,0,1.5,0,2.3,0s1.5,0,2.3,0
		c0.8,0,1.5,0,2.3,0c0.8,0,1.5,0,2.3,0c0.8,0,1.5,0,2.3,0s1.5,0,2.3,0s1.5,0,2.3,0c0.8,0,1.5,0,2.3,0s1.5,0,2.3,0c0,0,0,0,0-0.8
		c-0.8-1.5-2.3-3.1-3.1-3.8l-0.8-0.8c-14.7,0-29.4,0-44.8,0c-0.8,0-0.8,0-0.8,0.8c-1.5,2.3-3.1,3.8-4.6,6.1c0,0,0,0-0.8,0.8v-0.8
		c0-3.1,0-6.9,0-10.1c0-1.5,0-3.8,0-5.4c0-3.1,0.8-6.9,2.3-10.1c2.3-4.6,5.4-8.5,10.1-10.9c3.1-1.5,6.1-2.3,9.2-2.3
		c3.8-0.8,6.9-0.8,10.9,0c3.8,0,7.7,0.8,11.6,3.1c3.8,2.3,7.7,4.6,10.1,8.5c1.5,2.3,2.3,5.4,2.3,8.5c0,1.5,0,3.8,0,5.4
		c1.5,23.9,1.5,48.7,1.5,73.4v0.8c5.4,1.5,10.9,3.8,15.5,5.4C84.9,168.3,84.9,189.9,84.9,212.3z M30.8,116.4L30.8,116.4L30.8,116.4
		c6.9,0,13.9,0,20.1,0l0,0l0,0c0,0-0.8,0-0.8,0.8c-2.3,1.5-4.6,3.1-6.9,4.6l-0.8,0.8c0,1.5,0,3.1,0,4.6c0,0,0,0,0,0.8
		c0.8,0,20.1,0,20.9,0c0-3.1,0-6.9,0-10.1h-0.8c-4.6-1.5-10.1-3.8-14.7-5.4c-1.5-0.8-3.8-1.5-5.4-2.3c0,0-0.8,0-0.8-0.8
		c8.5,0,17,0,25.5,0c0,0,0-0.8-0.8-0.8c-0.8-1.5-2.3-3.1-3.8-4.6c0-0.8-0.8-0.8-0.8-0.8c-10.9,0-20.9,0-31.7,0c-3.8,0-8.5,0-13.2,0
		c-0.8,0-0.8,0-0.8,0.8c0.8,1.5-0.8,3.1-2.3,4.6c0,0,0,0,0,0.8l0,0l0,0l0,0l0,0c6.9,0,13.9,0,20.1,0l0,0l0,0l0,0l0,0l0,0l0,0
		c-0.8,0-1.5,0.8-1.5,0.8c-0.8,0-1.5,0.8-2.3,0.8c-0.8,0-1.5,0.8-2.3,0.8c-0.8,0-1.5,0.8-2.3,0.8c-0.8,0,0,0.8-0.8,0.8
		s-1.5,0.8-2.3,0.8c-0.8,0-1.5,0.8-2.3,0.8c-0.8,0-1.5,0.8-2.3,0.8c-0.8,0-1.5,0.8-1.5,0.8c0,1.5,0,9.2,0,10.1c6.9,0,13.2,0,20.1,0
		l0,0c0-1.5,0-3.1,0-5.4c0,0,0-0.8-0.8-0.8C33.9,119.5,32.4,118,30.8,116.4C32.4,118,31.6,117.2,30.8,116.4z M18.4,61.6
		c15.5,0,31,0,46.3,0c0-0.8,0-0.8,0-0.8c-1.5-1.5-2.3-2.3-3.1-3.8c-1.5-1.5-3.1-3.1-5.4-3.8c-3.1-1.5-6.9-2.3-10.9-2.3
		c-2.3,0-5.4,0-7.7,0c-3.1,0-6.1,0.8-9.2,1.5c-2.3,0.8-4.6,1.5-6.1,3.1c-1.5,0.8-2.3,2.3-3.1,3.8C18.4,60.8,18.4,60.8,18.4,61.6z
		 M35.5,171.3C34.7,171.3,34.7,170.6,35.5,171.3c-0.8-1.5-1.5-3.1-2.3-4.6c0-0.8-0.8-0.8-0.8-0.8c-3.1-1.5-6.9-3.8-10.1-5.4
		c-4.6-2.3-10.1-5.4-14.7-7.7c0,0,0,0-0.8,0c0,0,0,0,0.8,0.8c4.6,3.8,9.2,7.7,14.7,11.6c2.3,1.5,4.6,3.8,7.7,5.4h0.8
		C32.4,171.3,33.9,171.3,35.5,171.3z M78.8,200.6L78.8,200.6C78.8,199.9,78,199.9,78.8,200.6c-4.6-3.8-9.2-7.7-13.2-10.9
		c-3.1-2.3-6.9-5.4-10.1-8.5h-0.8c-1.5,0-2.3,0-3.8,0l0,0c0,0,0,0,0,0.8c0,0.8,0.8,2.3,1.5,3.8l0.8,0.8c1.5,0.8,3.8,1.5,5.4,2.3
		C64.9,192.9,71.8,196,78.8,200.6C78,199.9,78.8,200.6,78.8,200.6z M44,172.9c-1.5,0-3.1,0.8-5.4,0.8c0.8,2.3,1.5,3.8,2.3,5.4
		c1.5,0,3.8,0,5.4-0.8C45.5,176.7,44.8,175.2,44,172.9z"/>
	<path class="st0" d="M69.5,25.2c-0.8,0-0.8-0.8-0.8-0.8c0-0.8-0.8-0.8-0.8-0.8c0-0.8-0.8-0.8-0.8-0.8c0-0.8-0.8-0.8-0.8-0.8
		c0-0.8-0.8-0.8-0.8-0.8c-4.6,0.8-9.2,2.3-13.9,3.1c0,3.1,0,6.9,0,10.1c4.6,0.8,9.2,2.3,13.2,3.8c0,0,0,0,0.8-0.8
		c1.5-1.5,2.3-3.1,3.8-4.6c0,0,0-0.8,0.8-0.8c0,6.9,0,13.2,0,20.1c0,0-0.8,0-0.8-0.8c-1.5-1.5-2.3-3.1-3.8-4.6
		c-0.8-2.3-0.8-3.1-1.5-3.1l-0.8-0.8c-7.7-2.3-14.7-3.8-22.4-6.1s-15.5-3.8-22.4-6.1c0,0,0,0-0.8,0c-1.5,2.3-3.8,4.6-5.4,6.9l0,0
		l0,0c0,0,0,0,0-0.8c0-5.4,0-10.9,0-16.2c0.8,0,0.8,0,1.5,0c10.9-2.3,20.9-5.4,31.7-8.5c6.1-1.5,11.6-3.1,17.8-4.6
		c0.8,0,0.8,0,0.8-0.8c1.5-2.3,3.1-3.8,4.6-6.1c0,0,0-0.8,0.8-0.8l0,0l0,0l0,0C69.5,8.2,69.5,16.7,69.5,25.2L69.5,25.2z M31.6,26.8
		c4.6,1.5,9.2,2.3,13.9,3.8c0-0.8,0-6.9,0-6.9C40.9,24.5,36.2,26,31.6,26.8L31.6,26.8z"/>
</g>
</svg>
